<?xml version="1.0" encoding="UTF-8" standalone="no"?>
<!-- Created with Inkscape (http://www.inkscape.org/) -->

<svg
   xmlns:dc="http://purl.org/dc/elements/1.1/"
   xmlns:cc="http://creativecommons.org/ns#"
   xmlns:rdf="http://www.w3.org/1999/02/22-rdf-syntax-ns#"
   xmlns:svg="http://www.w3.org/2000/svg"
   xmlns="http://www.w3.org/2000/svg"
   xmlns:sodipodi="http://sodipodi.sourceforge.net/DTD/sodipodi-0.dtd"
   xmlns:inkscape="http://www.inkscape.org/namespaces/inkscape"
   width="2979.9211"
   height="4212.9922"
   id="svg4293"
   version="1.1"
   inkscape:version="0.48.2 r9819"
   sodipodi:docname="insane_poster_real.svg">
  <defs
     id="defs4295">
    <clipPath
       id="clipPath4500"
       clipPathUnits="userSpaceOnUse">
      <path
         id="path4502"
         d="m 2201.01,3821.86 1563.79,0 0,749.84 -1563.79,0 0,-749.84 z" />
    </clipPath>
  </defs>
  <sodipodi:namedview
     id="base"
     pagecolor="#ffffff"
     bordercolor="#666666"
     borderopacity="1.0"
     inkscape:pageopacity="0.0"
     inkscape:pageshadow="2"
     inkscape:zoom="0.22415812"
     inkscape:cx="1628.8521"
     inkscape:cy="2095.7565"
     inkscape:document-units="px"
     inkscape:current-layer="layer1"
     showgrid="false"
     showguides="true"
     inkscape:guide-bbox="true"
     inkscape:snap-bbox="false"
     inkscape:window-width="1920"
     inkscape:window-height="1147"
     inkscape:window-x="0"
     inkscape:window-y="0"
     inkscape:window-maximized="1"
     inkscape:snap-grids="false"
     inkscape:snap-page="true">
    <sodipodi:guide
       orientation="1,0"
       position="2925.7143,3682.8571"
       id="guide4639" />
    <sodipodi:guide
       orientation="0,1"
       position="2431.4286,4157.1429"
       id="guide4641" />
    <inkscape:grid
       type="xygrid"
       id="grid4643"
       empspacing="5"
       visible="true"
       enabled="true"
       snapvisiblegridlinesonly="true" />
    <sodipodi:guide
       orientation="1,0"
       position="59.721965,4005.6375"
       id="guide4647" />
    <sodipodi:guide
       orientation="0,1"
       position="682.53674,55.45611"
       id="guide4649" />
    <sodipodi:guide
       orientation="1,0"
       position="1498.9419,1249.1183"
       id="guide3228" />
  </sodipodi:namedview>
  <metadata
     id="metadata4298">
    <rdf:RDF>
      <cc:Work
         rdf:about="">
        <dc:format>image/svg+xml</dc:format>
        <dc:type
           rdf:resource="http://purl.org/dc/dcmitype/StillImage" />
        <dc:title />
      </cc:Work>
    </rdf:RDF>
  </metadata>
  <g
     inkscape:label="Layer 1"
     inkscape:groupmode="layer"
     id="layer1"
     transform="translate(0,3160.6299)">
    <g
       transform="matrix(3.4513974,0,0,-3.4513974,1626.2951,-1526.9017)"
       inkscape:label="EPFL_LOG_QUADRI_Red"
       id="g4492">
      <g
         transform="scale(0.1,0.1)"
         id="g4494">
        <g
           id="g4496">
          <g
             clip-path="url(#clipPath4500)"
             id="g4498">
            <path
               id="path4504"
               style="fill:#231f20;fill-opacity:1;fill-rule:nonzero;stroke:none"
               d="m 2812.78,4571.67 c 0,0 -57.78,-100.86 -59.95,-195.72 l 53.42,0 0,-45.78 -55.61,0 c 0,0 -4.37,-94.88 62.14,-200.62 l -53.97,0 c 0,0 -130.83,180.43 0,442.12 l 53.97,0"
               inkscape:connector-curvature="0" />
            <path
               id="path4506"
               style="fill:#ed1c24;fill-opacity:1;fill-rule:nonzero;stroke:none"
               d="m 2707.39,4129.69 c 0,0 -130.84,180.29 0,441.98 l -503.18,0 0,-441.98 503.18,0"
               inkscape:connector-curvature="0" />
            <path
               id="path4508"
               style="fill:#231f20;fill-opacity:1;fill-rule:nonzero;stroke:none"
               d="m 3015.06,4129.47 50.9,0 0,200.6 54.31,0 0,45.8 -53.45,0 c 2.18,94.85 59.98,195.71 59.98,195.71 l -53.95,0 c -41.5,-82.96 -56.68,-157.77 -58.05,-221.25 l 0.26,-220.86"
               inkscape:connector-curvature="0" />
            <path
               id="path4510"
               style="fill:#231f20;fill-opacity:1;fill-rule:nonzero;stroke:none"
               d="m 3200.68,4330.07 c 0,0 -4.39,-94.86 62.13,-200.62 l -53.98,0 c 0,0 -61.03,84.16 -58.01,220.9 l 0,221.32 49.59,0 0.27,-241.6"
               inkscape:connector-curvature="0" />
            <path
               id="path4512"
               style="fill:#ed1c24;fill-opacity:1;fill-rule:nonzero;stroke:none"
               d="m 3314.69,4129.45 c -66.51,105.76 -62.15,200.62 -62.15,200.62 l -0.27,241.6 511.38,0 -0.41,-442.18 -448.55,-0.04"
               inkscape:connector-curvature="0" />
            <path
               id="path4514"
               style="fill:#231f20;fill-opacity:1;fill-rule:nonzero;stroke:none"
               d="m 2846.13,4129.47 50.1523,0 0,442.199 -50.1523,0 0,-442.199 z"
               inkscape:connector-curvature="0" />
            <path
               id="path4516"
               style="fill:#231f20;fill-opacity:1;fill-rule:nonzero;stroke:none"
               d="m 2963.89,4571.67 -53.42,0 c 0,0 83.96,-110.13 0,-221.34 l 53.42,0 c 0,0 79.1,104.55 0,221.34"
               inkscape:connector-curvature="0" />
            <path
               id="path4518"
               style="fill:#231f20;fill-opacity:1;fill-rule:nonzero;stroke:none"
               d="m 2245.4,4069.69 c 0.59,-1.08 0,-1.41 -0.47,-1.41 -0.35,0 -1.53,0.22 -3.54,0 -5.77,-0.6 -13.99,-3.29 -17.88,-4.94 -0.82,-0.33 -1.54,-0.59 -1.77,-0.59 -0.24,0 -0.59,0.26 -0.59,0.73 0,0.34 0.24,0.56 0.82,0.91 4.24,2.91 15.2,9.55 16.02,10 1.99,1.2 2.7,1.55 3.3,1.55 0.34,0 0.59,-0.24 1.17,-1.06 0.82,-1.19 1.64,-2.83 2.94,-5.19 z m -34.13,-50.16 c 0,18.36 0,21.68 -0.24,25.44 -0.23,3.99 -1.17,5.89 -5.06,6.71 -0.95,0.23 -2.94,0.37 -4,0.37 -0.47,0 -0.95,0.22 -0.95,0.7 0,0.71 0.59,0.96 1.89,0.96 5.3,0 12.71,-0.37 13.3,-0.37 0.82,0 24.25,0 26.97,0.12 2.22,0.11 4.11,0.37 5.04,0.59 0.59,0.12 1.07,0.57 1.65,0.57 0.36,0 0.48,-0.45 0.48,-1.05 0,-0.82 -0.59,-2.23 -0.95,-5.54 -0.11,-1.17 -0.35,-6.35 -0.59,-7.76 -0.11,-0.6 -0.35,-1.32 -0.82,-1.32 -0.7,0 -0.93,0.6 -0.93,1.54 0,0.83 -0.13,2.85 -0.72,4.26 -0.82,1.87 -1.99,3.28 -8.35,3.96 -2.01,0.25 -14.83,0.37 -16.13,0.37 -0.47,0 -0.71,-0.37 -0.71,-1.19 l 0,-32.44 c 0,-0.84 0.12,-1.19 0.71,-1.19 1.53,0 16.01,0 18.71,0.23 2.83,0.24 4.48,0.49 5.54,1.64 0.82,0.92 1.29,1.51 1.77,1.51 0.34,0 0.58,-0.24 0.58,-0.94 0,-0.65 -0.58,-2.68 -0.94,-6.58 -0.23,-2.39 -0.46,-6.68 -0.46,-7.5 0,-0.98 0,-2.27 -0.83,-2.27 -0.59,0 -0.83,0.47 -0.83,1.08 0,1.19 0,2.36 -0.47,3.88 -0.47,1.62 -1.53,3.62 -6.12,4.08 -3.19,0.38 -14.83,0.61 -16.84,0.61 -0.58,0 -0.82,-0.35 -0.82,-0.82 l 0,-10.37 c 0,-3.97 -0.11,-17.64 0,-20.14 0.35,-8.1 2.13,-9.65 13.65,-9.65 3.07,0 8.25,0 11.31,1.31 3.06,1.29 4.47,3.67 5.3,8.46 0.23,1.31 0.47,1.78 1.05,1.78 0.71,0 0.71,-0.94 0.71,-1.78 0,-0.92 -0.94,-8.93 -1.53,-11.37 -0.82,-3.08 -1.77,-3.08 -6.36,-3.08 -17.77,0 -25.66,0.72 -29.07,0.72 -0.59,0 -8,-0.35 -11.53,-0.35 -1.3,0 -1.89,0.23 -1.89,0.93 0,0.36 0.24,0.73 0.94,0.73 1.06,0 2.48,0.23 3.53,0.47 2.36,0.46 2.94,3.02 3.42,6.44 0.59,4.92 0.59,14.24 0.59,25.53 l 0,20.72"
               inkscape:connector-curvature="0" />
            <path
               id="path4520"
               style="fill:#231f20;fill-opacity:1;fill-rule:nonzero;stroke:none"
               d="m 2283.89,3975.76 c -11.41,10.28 -14.24,23.63 -14.24,34.83 0,7.89 2.71,21.68 13.18,32.16 7.06,7.04 17.78,12.58 35.9,12.58 4.71,0 11.3,-0.36 17.07,-1.41 4.47,-0.81 8.24,-1.54 12.01,-1.75 1.29,-0.12 1.52,-0.61 1.52,-1.31 0,-0.96 -0.35,-2.36 -0.58,-6.59 -0.23,-3.89 -0.23,-10.34 -0.35,-12.12 -0.13,-1.78 -0.36,-2.5 -1.06,-2.5 -0.82,0 -0.95,0.84 -0.95,2.5 0,4.59 -1.89,9.41 -4.94,12.01 -4.13,3.5 -13.18,6.7 -23.55,6.7 -15.64,0 -22.95,-4.6 -27.06,-8.57 -8.6,-8.25 -10.61,-18.74 -10.61,-30.75 0,-22.5 17.32,-43.1 42.5,-43.1 8.83,0 15.78,1.05 20.48,5.92 2.47,2.59 4.01,7.75 4.36,9.88 0.24,1.31 0.47,1.8 1.18,1.8 0.58,0 0.82,-0.84 0.82,-1.8 0,-0.84 -1.42,-11.06 -2.6,-15.1 -0.69,-2.19 -0.92,-2.42 -3.05,-3.36 -4.7,-1.89 -13.65,-2.73 -21.19,-2.73 -17.65,0 -29.54,4.37 -38.84,12.71"
               inkscape:connector-curvature="0" />
            <path
               id="path4522"
               style="fill:#231f20;fill-opacity:1;fill-rule:nonzero;stroke:none"
               d="m 2375.59,4012.6 c 0,25.76 14.71,38.74 34.37,38.74 18.59,0 35.78,-15.21 35.78,-43.47 0,-34.24 -21.89,-40.35 -32.49,-40.35 -21.19,0 -37.66,17.68 -37.66,45.08 z m -11.2,-3.32 c 0,-21.17 13.43,-46.23 45.68,-46.23 28.37,0 46.97,21.79 46.97,48.14 0,27.4 -19.77,44.14 -46.26,44.14 -32.48,0 -46.39,-26.97 -46.39,-46.05"
               inkscape:connector-curvature="0" />
            <path
               id="path4524"
               style="fill:#231f20;fill-opacity:1;fill-rule:nonzero;stroke:none"
               d="m 2495.41,3998.57 c 0,-17.28 0.47,-24.82 2.59,-26.95 1.89,-1.87 4.95,-2.71 14.12,-2.71 6.24,0 11.42,0.11 14.24,3.55 1.53,1.9 2.72,4.84 3.07,7.05 0.11,0.94 0.34,1.53 1.06,1.53 0.59,0 0.7,-0.47 0.7,-1.78 0,-1.27 -0.82,-8.34 -1.76,-11.74 -0.83,-2.72 -1.17,-3.18 -7.42,-3.18 -16.95,0 -24.72,0.72 -31.55,0.72 -1.06,0 -8,-0.35 -11.53,-0.35 -1.29,0 -1.88,0.23 -1.88,0.93 0,0.36 0.22,0.73 0.94,0.73 1.06,0 2.47,0.23 3.53,0.47 2.36,0.46 2.93,3.02 3.41,6.44 0.59,4.92 0.59,14.24 0.59,25.53 l 0,20.72 c 0,18.36 0,21.68 -0.23,25.44 -0.25,3.99 -1.18,5.89 -5.06,6.71 -0.95,0.23 -2.96,0.37 -4.01,0.37 -0.47,0 -0.94,0.22 -0.94,0.7 0,0.71 0.59,0.96 1.89,0.96 5.29,0 12.7,-0.37 13.29,-0.37 0.59,0 9.18,0.37 12.72,0.37 1.29,0 1.88,-0.25 1.88,-0.96 0,-0.48 -0.47,-0.7 -0.94,-0.7 -0.83,0 -2.48,-0.14 -3.89,-0.37 -3.41,-0.59 -4.35,-2.6 -4.59,-6.71 -0.23,-3.76 -0.23,-7.08 -0.23,-25.44 l 0,-20.96"
               inkscape:connector-curvature="0" />
            <path
               id="path4526"
               style="fill:#231f20;fill-opacity:1;fill-rule:nonzero;stroke:none"
               d="m 2555.2,4019.53 c 0,18.36 0,21.68 -0.24,25.44 -0.23,3.99 -1.17,5.89 -5.05,6.71 -0.95,0.23 -2.94,0.37 -4.01,0.37 -0.47,0 -0.94,0.22 -0.94,0.7 0,0.71 0.59,0.96 1.89,0.96 5.29,0 12.7,-0.37 13.29,-0.37 0.83,0 24.26,0 26.97,0.12 2.23,0.11 4.12,0.37 5.05,0.59 0.59,0.12 1.06,0.57 1.65,0.57 0.35,0 0.46,-0.45 0.46,-1.05 0,-0.82 -0.57,-2.23 -0.93,-5.54 -0.12,-1.17 -0.35,-6.35 -0.59,-7.76 -0.12,-0.6 -0.36,-1.32 -0.82,-1.32 -0.7,0 -0.94,0.6 -0.94,1.54 0,0.83 -0.11,2.85 -0.71,4.26 -0.83,1.87 -2,3.28 -8.36,3.96 -2,0.25 -14.83,0.37 -16.12,0.37 -0.47,0 -0.72,-0.37 -0.72,-1.19 l 0,-32.44 c 0,-0.84 0.13,-1.19 0.72,-1.19 1.52,0 16.01,0 18.71,0.23 2.83,0.24 4.48,0.49 5.53,1.64 0.84,0.92 1.3,1.51 1.76,1.51 0.36,0 0.59,-0.24 0.59,-0.94 0,-0.65 -0.59,-2.68 -0.92,-6.58 -0.24,-2.39 -0.48,-6.68 -0.48,-7.5 0,-0.98 0,-2.27 -0.82,-2.27 -0.6,0 -0.83,0.47 -0.83,1.08 0,1.19 0,2.36 -0.47,3.88 -0.48,1.62 -1.53,3.62 -6.12,4.08 -3.18,0.38 -14.84,0.61 -16.83,0.61 -0.59,0 -0.84,-0.35 -0.84,-0.82 l 0,-10.37 c 0,-3.97 -0.1,-17.64 0,-20.14 0.37,-8.1 2.13,-9.65 13.67,-9.65 3.06,0 8.23,0 11.29,1.31 3.07,1.29 4.48,3.67 5.3,8.46 0.25,1.31 0.48,1.78 1.07,1.78 0.7,0 0.7,-0.94 0.7,-1.78 0,-0.92 -0.94,-8.93 -1.52,-11.37 -0.83,-3.08 -1.78,-3.08 -6.38,-3.08 -17.76,0 -25.65,0.72 -29.07,0.72 -0.59,0 -8,-0.35 -11.52,-0.35 -1.3,0 -1.89,0.23 -1.89,0.93 0,0.36 0.24,0.73 0.94,0.73 1.06,0 2.48,0.23 3.53,0.47 2.35,0.46 2.94,3.02 3.41,6.44 0.59,4.92 0.59,14.24 0.59,25.53 l 0,20.72"
               inkscape:connector-curvature="0" />
            <path
               id="path4528"
               style="fill:#231f20;fill-opacity:1;fill-rule:nonzero;stroke:none"
               d="m 2665.26,4019.53 c 0,18.36 0,21.68 -0.24,25.44 -0.23,3.99 -1.18,5.89 -5.06,6.71 -0.93,0.23 -2.94,0.37 -3.99,0.37 -0.48,0 -0.95,0.22 -0.95,0.7 0,0.71 0.59,0.96 1.88,0.96 5.3,0 12.36,-0.37 13.31,-0.37 2.57,0 9.4,0.37 14.82,0.37 14.73,0 20.01,-5 21.9,-6.74 2.59,-2.46 5.88,-7.77 5.88,-13.98 0,-16.74 -12.24,-28.03 -28.95,-28.03 -0.59,0 -1.88,0 -2.47,0.14 -0.59,0 -1.3,0.21 -1.3,0.82 0,0.9 0.71,1.01 3.18,1.01 11.41,0 20.36,8.4 20.36,19.22 0,3.87 -0.35,11.74 -6.59,18.12 -6.24,6.34 -13.42,5.87 -16.13,5.87 -1.99,0 -4,-0.24 -5.05,-0.71 -0.72,-0.23 -0.95,-1.05 -0.95,-2.22 l 0,-48.4 c 0,-11.29 0,-20.61 0.59,-25.53 0.36,-3.42 1.05,-5.98 4.59,-6.44 1.65,-0.24 4.23,-0.47 5.3,-0.47 0.7,0 0.94,-0.37 0.94,-0.73 0,-0.58 -0.59,-0.93 -1.88,-0.93 -6.48,0 -13.89,0.35 -14.49,0.35 -0.35,0 -7.76,-0.35 -11.29,-0.35 -1.29,0 -1.89,0.23 -1.89,0.93 0,0.36 0.24,0.73 0.94,0.73 1.07,0 2.47,0.23 3.53,0.47 2.36,0.46 2.95,3.02 3.42,6.44 0.59,4.92 0.59,14.24 0.59,25.53 l 0,20.72"
               inkscape:connector-curvature="0" />
            <path
               id="path4530"
               style="fill:#231f20;fill-opacity:1;fill-rule:nonzero;stroke:none"
               d="m 2738.59,4012.6 c 0,25.76 14.72,38.74 34.37,38.74 18.61,0 35.79,-15.21 35.79,-43.47 0,-34.24 -21.9,-40.35 -32.49,-40.35 -21.2,0 -37.67,17.68 -37.67,45.08 z m -11.19,-3.32 c 0,-21.17 13.42,-46.23 45.67,-46.23 28.38,0 46.98,21.79 46.98,48.14 0,27.4 -19.78,44.14 -46.26,44.14 -32.49,0 -46.39,-26.97 -46.39,-46.05"
               inkscape:connector-curvature="0" />
            <path
               id="path4532"
               style="fill:#231f20;fill-opacity:1;fill-rule:nonzero;stroke:none"
               d="m 2856.06,3998.57 c 0,-17.28 0.47,-24.82 2.58,-26.95 1.89,-1.87 4.95,-2.71 14.13,-2.71 6.25,0 11.42,0.11 14.24,3.55 1.54,1.9 2.72,4.84 3.06,7.05 0.13,0.94 0.36,1.53 1.07,1.53 0.57,0 0.7,-0.47 0.7,-1.78 0,-1.27 -0.82,-8.34 -1.77,-11.74 -0.83,-2.72 -1.16,-3.18 -7.41,-3.18 -16.95,0 -24.72,0.72 -31.55,0.72 -1.05,0 -8,-0.35 -11.53,-0.35 -1.29,0 -1.88,0.23 -1.88,0.93 0,0.36 0.23,0.73 0.93,0.73 1.08,0 2.48,0.23 3.55,0.47 2.35,0.46 2.94,3.02 3.4,6.44 0.59,4.92 0.59,14.24 0.59,25.53 l 0,20.72 c 0,18.36 0,21.68 -0.23,25.44 -0.24,3.99 -1.17,5.89 -5.06,6.71 -0.94,0.23 -2.95,0.37 -4,0.37 -0.47,0 -0.96,0.22 -0.96,0.7 0,0.71 0.6,0.96 1.9,0.96 5.29,0 12.7,-0.37 13.29,-0.37 0.6,0 9.19,0.37 12.72,0.37 1.29,0 1.88,-0.25 1.88,-0.96 0,-0.48 -0.48,-0.7 -0.94,-0.7 -0.82,0 -2.47,-0.14 -3.89,-0.37 -3.41,-0.59 -4.35,-2.6 -4.58,-6.71 -0.24,-3.76 -0.24,-7.08 -0.24,-25.44 l 0,-20.96"
               inkscape:connector-curvature="0" />
            <path
               id="path4534"
               style="fill:#231f20;fill-opacity:1;fill-rule:nonzero;stroke:none"
               d="m 2926.57,3995.2 c 0,6.34 -1.17,8.92 -2.71,12.32 -0.82,1.87 -16.59,27.8 -20.71,33.92 -2.95,4.35 -5.89,7.27 -8.01,8.7 -1.76,1.2 -4,1.91 -5.07,1.91 -0.59,0 -1.16,0.22 -1.16,0.82 0,0.47 0.46,0.84 1.52,0.84 2.24,0 11.07,-0.37 11.65,-0.37 0.83,0 5.3,0.37 9.88,0.37 1.32,0 1.55,-0.37 1.55,-0.84 0,-0.49 -0.72,-0.6 -1.78,-1.07 -0.93,-0.46 -1.52,-1.19 -1.52,-2.11 0,-1.45 0.59,-2.83 1.52,-4.61 1.89,-3.4 19.55,-33.77 21.66,-37.21 2.23,4.96 17.18,30.72 19.54,34.63 1.54,2.47 1.99,4.47 1.99,6 0,1.64 -0.45,2.95 -1.87,3.3 -1.05,0.37 -1.76,0.58 -1.76,1.19 0,0.47 0.71,0.72 1.89,0.72 3.05,0 6.81,-0.37 7.76,-0.37 0.71,0 9.18,0.37 11.4,0.37 0.84,0 1.55,-0.25 1.55,-0.72 0,-0.61 -0.59,-0.94 -1.55,-0.94 -1.28,0 -3.51,-0.49 -5.41,-1.68 -2.35,-1.41 -3.64,-2.83 -6.23,-5.97 -3.88,-4.73 -20.37,-32.39 -22.49,-37.47 -1.75,-4.22 -1.75,-7.89 -1.75,-11.73 l 0,-10.14 c 0,-1.88 0,-6.86 0.35,-11.78 0.24,-3.42 1.29,-5.98 4.83,-6.44 1.64,-0.24 4.23,-0.47 5.29,-0.47 0.7,0 0.94,-0.37 0.94,-0.73 0,-0.58 -0.57,-0.93 -1.89,-0.93 -6.46,0 -13.87,0.35 -14.46,0.35 -0.6,0 -8.02,-0.35 -11.54,-0.35 -1.31,0 -1.88,0.23 -1.88,0.93 0,0.36 0.23,0.73 0.92,0.73 1.08,0 2.48,0.23 3.55,0.47 2.35,0.46 3.41,3.02 3.64,6.44 0.36,4.92 0.36,9.9 0.36,11.78 l 0,10.14"
               inkscape:connector-curvature="0" />
            <path
               id="path4536"
               style="fill:#231f20;fill-opacity:1;fill-rule:nonzero;stroke:none"
               d="m 3017.91,3998.81 c 0,-11.29 0,-20.61 0.57,-25.53 0.35,-3.42 1.07,-5.98 4.61,-6.44 1.66,-0.24 4.23,-0.47 5.27,-0.47 0.72,0 0.94,-0.37 0.94,-0.73 0,-0.58 -0.59,-0.93 -1.85,-0.93 -6.48,0 -13.88,0.35 -14.46,0.35 -0.61,0 -8.01,-0.35 -11.56,-0.35 -1.31,0 -1.9,0.23 -1.9,0.93 0,0.36 0.24,0.73 0.94,0.73 1.07,0 2.5,0.23 3.55,0.47 2.35,0.46 2.95,3.02 3.4,6.44 0.61,4.92 0.61,14.24 0.61,25.53 l 0,49.8 -17.44,-0.23 c -7.29,-0.14 -10.11,-0.96 -11.98,-3.77 -1.31,-1.99 -1.67,-2.81 -2.02,-3.64 -0.35,-0.95 -0.7,-1.18 -1.18,-1.18 -0.35,0 -0.6,0.35 -0.6,1.06 0,1.18 2.37,11.32 2.6,12.26 0.23,0.72 0.71,2.22 1.2,2.22 0.8,0 1.99,-1.16 5.18,-1.41 3.39,-0.35 7.86,-0.58 9.28,-0.58 l 44.15,0 c 7.53,0 10.67,1.16 11.63,1.16 0.6,0 0.6,-0.67 0.6,-1.39 0,-3.54 -0.35,-11.67 -0.35,-12.97 0,-1.06 -0.35,-1.55 -0.84,-1.55 -0.58,0 -0.82,0.36 -0.96,2.02 l -0.1,1.3 c -0.44,3.52 -3.14,6.21 -14.45,6.47 l -14.84,0.23 0,-49.8"
               inkscape:connector-curvature="0" />
            <path
               id="path4538"
               style="fill:#231f20;fill-opacity:1;fill-rule:nonzero;stroke:none"
               d="m 3074.16,4019.53 c 0,18.36 0,21.68 -0.21,25.44 -0.24,3.99 -1.18,5.89 -5.08,6.71 -0.94,0.23 -2.93,0.37 -4.01,0.37 -0.47,0 -0.91,0.22 -0.91,0.7 0,0.71 0.55,0.96 1.86,0.96 5.28,0 12.71,-0.37 13.29,-0.37 0.85,0 24.25,0 26.95,0.12 2.24,0.11 4.15,0.37 5.1,0.59 0.59,0.12 1.06,0.57 1.64,0.57 0.35,0 0.44,-0.45 0.44,-1.05 0,-0.82 -0.57,-2.23 -0.91,-5.54 -0.11,-1.17 -0.35,-6.35 -0.58,-7.76 -0.14,-0.6 -0.35,-1.32 -0.82,-1.32 -0.72,0 -0.98,0.6 -0.98,1.54 0,0.83 -0.1,2.85 -0.7,4.26 -0.81,1.87 -1.99,3.28 -8.34,3.96 -2.01,0.25 -14.85,0.37 -16.14,0.37 -0.47,0 -0.72,-0.37 -0.72,-1.19 l 0,-32.44 c 0,-0.84 0.13,-1.19 0.72,-1.19 1.51,0 16.02,0 18.72,0.23 2.81,0.24 4.47,0.49 5.54,1.64 0.82,0.92 1.29,1.51 1.78,1.51 0.35,0 0.59,-0.24 0.59,-0.94 0,-0.65 -0.59,-2.68 -0.96,-6.58 -0.23,-2.39 -0.49,-6.68 -0.49,-7.5 0,-0.98 0,-2.27 -0.8,-2.27 -0.6,0 -0.85,0.47 -0.85,1.08 0,1.19 0,2.36 -0.44,3.88 -0.49,1.62 -1.56,3.62 -6.13,4.08 -3.17,0.38 -14.84,0.61 -16.83,0.61 -0.6,0 -0.85,-0.35 -0.85,-0.82 l 0,-10.37 c 0,-3.97 -0.09,-17.64 0,-20.14 0.36,-8.1 2.12,-9.65 13.66,-9.65 3.08,0 8.22,0 11.32,1.31 3.07,1.29 4.48,3.67 5.29,8.46 0.24,1.31 0.49,1.78 1.05,1.78 0.69,0 0.69,-0.94 0.69,-1.78 0,-0.92 -0.93,-8.93 -1.5,-11.37 -0.83,-3.08 -1.76,-3.08 -6.37,-3.08 -17.76,0 -25.64,0.72 -29.08,0.72 -0.58,0 -8.01,-0.35 -11.54,-0.35 -1.26,0 -1.85,0.23 -1.85,0.93 0,0.36 0.23,0.73 0.92,0.73 1.05,0 2.47,0.23 3.54,0.47 2.37,0.46 2.95,3.02 3.42,6.44 0.57,4.92 0.57,14.24 0.57,25.53 l 0,20.72"
               inkscape:connector-curvature="0" />
            <path
               id="path4540"
               style="fill:#231f20;fill-opacity:1;fill-rule:nonzero;stroke:none"
               d="m 3146.78,3975.76 c -11.43,10.28 -14.24,23.63 -14.24,34.83 0,7.89 2.69,21.68 13.16,32.16 7.09,7.04 17.8,12.58 35.96,12.58 4.69,0 11.25,-0.36 17.07,-1.41 4.41,-0.81 8.22,-1.54 11.99,-1.75 1.25,-0.12 1.51,-0.61 1.51,-1.31 0,-0.96 -0.37,-2.36 -0.57,-6.59 -0.27,-3.89 -0.27,-10.34 -0.37,-12.12 -0.1,-1.78 -0.33,-2.5 -1.02,-2.5 -0.84,0 -0.95,0.84 -0.95,2.5 0,4.59 -1.9,9.41 -4.96,12.01 -4.11,3.5 -13.17,6.7 -23.52,6.7 -15.68,0 -22.97,-4.6 -27.12,-8.57 -8.6,-8.25 -10.58,-18.74 -10.58,-30.75 0,-22.5 17.33,-43.1 42.48,-43.1 8.83,0 15.79,1.05 20.47,5.92 2.52,2.59 4.05,7.75 4.4,9.88 0.23,1.31 0.47,1.8 1.17,1.8 0.57,0 0.78,-0.84 0.78,-1.8 0,-0.84 -1.37,-11.06 -2.54,-15.1 -0.7,-2.19 -0.94,-2.42 -3.08,-3.36 -4.73,-1.89 -13.68,-2.73 -21.2,-2.73 -17.65,0 -29.55,4.37 -38.84,12.71"
               inkscape:connector-curvature="0" />
            <path
               id="path4542"
               style="fill:#231f20;fill-opacity:1;fill-rule:nonzero;stroke:none"
               d="m 3311.82,3998.81 c 0,-11.29 0,-20.61 0.58,-25.53 0.35,-3.42 1.08,-5.98 4.61,-6.44 1.62,-0.24 4.2,-0.47 5.28,-0.47 0.72,0 0.93,-0.37 0.93,-0.73 0,-0.58 -0.58,-0.93 -1.87,-0.93 -6.47,0 -13.87,0.35 -14.46,0.35 -0.58,0 -8.02,-0.35 -11.56,-0.35 -1.29,0 -1.87,0.23 -1.87,0.93 0,0.36 0.21,0.73 0.93,0.73 1.08,0 2.5,0.23 3.56,0.47 2.32,0.46 2.91,3.02 3.38,6.44 0.6,4.92 0.6,14.24 0.6,25.53 l 0,12.38 c 0,0.47 -0.37,0.7 -0.72,0.7 l -49.92,0 c -0.35,0 -0.68,-0.11 -0.68,-0.7 l 0,-12.38 c 0,-11.29 0,-20.61 0.56,-25.53 0.35,-3.42 1.08,-5.98 4.63,-6.44 1.66,-0.24 4.22,-0.47 5.25,-0.47 0.73,0 0.98,-0.37 0.98,-0.73 0,-0.58 -0.6,-0.93 -1.89,-0.93 -6.47,0 -13.89,0.35 -14.48,0.35 -0.58,0 -7.98,-0.35 -11.52,-0.35 -1.31,0 -1.91,0.23 -1.91,0.93 0,0.36 0.25,0.73 0.95,0.73 1.06,0 2.46,0.23 3.54,0.47 2.38,0.46 2.97,3.02 3.44,6.44 0.56,4.92 0.56,14.24 0.56,25.53 l 0,20.72 c 0,18.36 0,21.68 -0.23,25.44 -0.24,3.99 -1.15,5.89 -5.06,6.71 -0.94,0.23 -2.95,0.37 -4.02,0.37 -0.47,0 -0.92,0.22 -0.92,0.7 0,0.71 0.56,0.96 1.85,0.96 5.34,0 12.74,-0.37 13.32,-0.37 0.59,0 8.01,0.37 11.55,0.37 1.33,0 1.89,-0.25 1.89,-0.96 0,-0.48 -0.47,-0.7 -0.94,-0.7 -0.82,0 -1.54,-0.14 -2.96,-0.37 -3.19,-0.59 -4.13,-2.6 -4.38,-6.71 -0.21,-3.76 -0.21,-7.08 -0.21,-25.44 l 0,-2.48 c 0,-0.57 0.33,-0.66 0.68,-0.66 l 49.92,0 c 0.35,0 0.72,0.09 0.72,0.66 l 0,2.48 c 0,18.36 0,21.68 -0.25,25.44 -0.23,3.99 -1.17,5.89 -5.02,6.71 -0.96,0.23 -2.99,0.37 -4.02,0.37 -0.49,0 -0.98,0.22 -0.98,0.7 0,0.71 0.61,0.96 1.91,0.96 5.3,0 12.74,-0.37 13.32,-0.37 0.59,0 7.99,0.37 11.51,0.37 1.29,0 1.87,-0.25 1.87,-0.96 0,-0.48 -0.47,-0.7 -0.93,-0.7 -0.82,0 -1.51,-0.14 -2.89,-0.37 -3.23,-0.59 -4.18,-2.6 -4.4,-6.71 -0.23,-3.76 -0.23,-7.08 -0.23,-25.44 l 0,-20.72"
               inkscape:connector-curvature="0" />
            <path
               id="path4544"
               style="fill:#231f20;fill-opacity:1;fill-rule:nonzero;stroke:none"
               d="m 3356.91,3980.7 c 0.24,-9.66 1.37,-12.71 4.57,-13.63 2.25,-0.61 4.85,-0.7 5.88,-0.7 0.59,0 0.92,-0.24 0.92,-0.73 0,-0.7 -0.68,-0.93 -2.07,-0.93 -6.74,0 -11.41,0.35 -12.48,0.35 -1.07,0 -6.02,-0.35 -11.31,-0.35 -1.19,0 -1.89,0.09 -1.89,0.93 0,0.49 0.35,0.73 0.93,0.73 0.96,0 3.09,0.09 4.87,0.7 2.91,0.8 3.49,4.2 3.49,14.92 l 0.14,67.44 c 0,4.62 0.35,5.9 1.29,5.9 0.94,0 2.97,-2.58 4.14,-3.77 1.76,-1.99 19.3,-20.95 37.42,-40.37 11.66,-12.5 24.48,-26.81 28.24,-30.74 l -1.3,59.82 c -0.1,7.62 -0.96,10.24 -4.57,11.18 -2.11,0.46 -4.83,0.6 -5.79,0.6 -0.82,0 -0.95,0.33 -0.95,0.82 0,0.7 0.95,0.84 2.36,0.84 5.29,0 10.96,-0.37 12.27,-0.37 1.31,0 5.17,0.37 10,0.37 1.29,0 2.11,-0.14 2.11,-0.84 0,-0.49 -0.47,-0.82 -1.27,-0.82 -0.61,0 -1.43,0 -2.86,-0.37 -3.88,-0.82 -4.37,-3.44 -4.37,-10.47 l -0.23,-68.98 c 0,-7.78 -0.24,-8.34 -1.06,-8.34 -0.92,0 -2.3,1.29 -8.59,7.52 -1.27,1.19 -18.25,18.45 -30.69,31.89 -13.67,14.69 -26.99,29.55 -30.72,33.79 l 1.52,-56.39"
               inkscape:connector-curvature="0" />
            <path
               id="path4546"
               style="fill:#231f20;fill-opacity:1;fill-rule:nonzero;stroke:none"
               d="m 3475.06,3998.81 c 0,-11.29 0,-20.61 0.6,-25.53 0.36,-3.42 1.06,-5.98 4.61,-6.44 1.64,-0.24 4.22,-0.47 5.28,-0.47 0.7,0 0.93,-0.37 0.93,-0.73 0,-0.58 -0.58,-0.93 -1.87,-0.93 -6.49,0 -13.89,0.35 -14.47,0.35 -0.59,0 -7.99,-0.35 -11.55,-0.35 -1.3,0 -1.89,0.23 -1.89,0.93 0,0.36 0.23,0.73 0.94,0.73 1.07,0 2.5,0.23 3.55,0.47 2.35,0.46 2.95,3.02 3.4,6.44 0.57,4.92 0.57,14.24 0.57,25.53 l 0,20.72 c 0,18.36 0,21.68 -0.22,25.44 -0.21,3.99 -1.4,6.01 -3.98,6.59 -1.29,0.35 -2.85,0.49 -3.67,0.49 -0.47,0 -0.94,0.22 -0.94,0.7 0,0.71 0.58,0.96 1.87,0.96 3.93,0 11.33,-0.37 11.92,-0.37 0.58,0 7.98,0.37 11.56,0.37 1.27,0 1.85,-0.25 1.85,-0.96 0,-0.48 -0.48,-0.7 -0.93,-0.7 -0.82,0 -1.53,-0.14 -2.93,-0.37 -3.23,-0.59 -4.16,-2.6 -4.4,-6.71 -0.23,-3.76 -0.23,-7.08 -0.23,-25.44 l 0,-20.72"
               inkscape:connector-curvature="0" />
            <path
               id="path4548"
               style="fill:#231f20;fill-opacity:1;fill-rule:nonzero;stroke:none"
               d="m 3514.73,4012.6 c 0,25.76 14.74,38.74 34.39,38.74 18.59,0 35.78,-15.21 35.78,-43.47 0,-34.24 -21.91,-40.35 -32.5,-40.35 -21.19,0 -37.67,17.68 -37.67,45.08 z m 73.12,-56.49 c 19.06,-10.49 34.22,-15.8 48.5,-15.8 17.42,0 30.6,5.08 37.3,8.13 0.73,0.37 0.96,0.7 0.96,1.17 0,0.35 -0.23,0.7 -0.72,0.7 -0.35,0 -0.94,-0.23 -1.66,-0.49 -8.09,-3.24 -17.29,-4.55 -23.19,-4.55 -5.88,0 -23.75,0.61 -49.55,13.85 l -24.14,12.5 c 7.77,5.12 20.86,18.85 20.86,39.57 0,27.29 -19.78,44.14 -46.25,44.14 -32.5,0 -46.41,-26.97 -46.41,-46.05 0,-21.17 13.42,-46.23 46.06,-46.23 6.21,0 14.22,1.75 18.46,4.02 l 19.78,-10.96"
               inkscape:connector-curvature="0" />
            <path
               id="path4550"
               style="fill:#231f20;fill-opacity:1;fill-rule:nonzero;stroke:none"
               d="m 3618.46,4019.53 c 0,18.36 0,21.68 -0.24,25.44 -0.23,3.99 -1.17,5.89 -5.1,6.71 -0.93,0.23 -2.92,0.37 -3.98,0.37 -0.45,0 -0.94,0.22 -0.94,0.7 0,0.71 0.61,0.96 1.88,0.96 5.31,0 12.48,-0.37 13.55,-0.37 1.06,0 8.09,0.37 11.64,0.37 1.33,0 1.9,-0.25 1.9,-0.96 0,-0.48 -0.49,-0.7 -0.92,-0.7 -0.86,0 -1.56,-0.14 -2.99,-0.37 -3.18,-0.46 -4.1,-2.6 -4.33,-6.71 -0.24,-3.76 -0.24,-7.08 -0.24,-25.44 l 0,-16.46 c 0,-16.94 3.75,-24.28 8.85,-29.07 5.74,-5.45 11.05,-6.48 17.75,-6.48 7.17,0 14.22,3.4 18.48,8.5 5.41,6.68 6.82,16.69 6.82,28.82 l 0,14.69 c 0,18.36 0,21.68 -0.24,25.44 -0.23,3.99 -1.17,5.89 -5.04,6.71 -0.93,0.23 -2.95,0.37 -4.02,0.37 -0.49,0 -0.94,0.22 -0.94,0.7 0,0.71 0.57,0.96 1.88,0.96 5.31,0 11.79,-0.37 12.5,-0.37 0.82,0 6.32,0.37 9.9,0.37 1.29,0 1.85,-0.25 1.85,-0.96 0,-0.48 -0.44,-0.7 -0.91,-0.7 -0.82,0 -1.55,0 -2.97,-0.37 -3.21,-0.59 -4.12,-2.6 -4.36,-6.71 -0.25,-3.76 -0.25,-7.08 -0.25,-25.44 l 0,-12.6 c 0,-12.67 -1.39,-26.83 -10.82,-35.19 -8.46,-7.52 -17.29,-8.69 -24.26,-8.69 -3.96,0 -15.86,0.47 -24.22,8.36 -5.78,5.54 -10.23,13.79 -10.23,30.95 l 0,17.17"
               inkscape:connector-curvature="0" />
            <path
               id="path4552"
               style="fill:#231f20;fill-opacity:1;fill-rule:nonzero;stroke:none"
               d="m 3722.97,4019.53 c 0,18.36 0,21.68 -0.24,25.44 -0.23,3.99 -1.17,5.89 -5.07,6.71 -0.92,0.23 -2.91,0.37 -3.99,0.37 -0.47,0 -0.94,0.22 -0.94,0.7 0,0.71 0.59,0.96 1.88,0.96 5.29,0 12.71,-0.37 13.3,-0.37 0.8,0 24.26,0 26.95,0.12 2.23,0.11 4.1,0.37 5.06,0.59 0.59,0.12 1.08,0.57 1.66,0.57 0.37,0 0.47,-0.45 0.47,-1.05 0,-0.82 -0.59,-2.23 -0.96,-5.54 -0.09,-1.17 -0.35,-6.35 -0.58,-7.76 -0.12,-0.6 -0.35,-1.32 -0.82,-1.32 -0.73,0 -0.96,0.6 -0.96,1.54 0,0.83 -0.1,2.85 -0.7,4.26 -0.8,1.87 -1.99,3.28 -8.34,3.96 -1.99,0.25 -14.83,0.37 -16.14,0.37 -0.44,0 -0.7,-0.37 -0.7,-1.19 l 0,-32.44 c 0,-0.84 0.14,-1.19 0.7,-1.19 1.53,0 16,0 18.74,0.23 2.81,0.24 4.45,0.49 5.48,1.64 0.86,0.92 1.31,1.51 1.8,1.51 0.35,0 0.59,-0.24 0.59,-0.94 0,-0.65 -0.59,-2.68 -0.94,-6.58 -0.26,-2.39 -0.49,-6.68 -0.49,-7.5 0,-0.98 0,-2.27 -0.82,-2.27 -0.57,0 -0.82,0.47 -0.82,1.08 0,1.19 0,2.36 -0.45,3.88 -0.49,1.62 -1.54,3.62 -6.13,4.08 -3.17,0.38 -14.83,0.61 -16.82,0.61 -0.58,0 -0.84,-0.35 -0.84,-0.82 l 0,-10.37 c 0,-3.97 -0.1,-17.64 0,-20.14 0.35,-8.1 2.15,-9.65 13.65,-9.65 3.05,0 8.25,0 11.27,1.31 3.11,1.29 4.53,3.67 5.34,8.46 0.25,1.31 0.48,1.78 1.05,1.78 0.72,0 0.72,-0.94 0.72,-1.78 0,-0.92 -0.93,-8.93 -1.52,-11.37 -0.82,-3.08 -1.78,-3.08 -6.39,-3.08 -17.79,0 -25.64,0.72 -29.06,0.72 -0.59,0 -8.01,-0.35 -11.52,-0.35 -1.29,0 -1.88,0.23 -1.88,0.93 0,0.36 0.24,0.73 0.94,0.73 1.05,0 2.46,0.23 3.48,0.47 2.38,0.46 2.96,3.02 3.45,6.44 0.59,4.92 0.59,14.24 0.59,25.53 l 0,20.72"
               inkscape:connector-curvature="0" />
            <path
               id="path4554"
               style="fill:#231f20;fill-opacity:1;fill-rule:nonzero;stroke:none"
               d="m 2212.14,3878.32 c 0,18.34 0,21.62 -0.23,25.41 -0.23,4.02 -1.17,5.86 -5.06,6.68 -0.94,0.23 -2.94,0.35 -4.01,0.35 -0.46,0 -0.93,0.24 -0.93,0.7 0,0.73 0.59,0.96 1.88,0.96 5.3,0 12.71,-0.37 13.3,-0.37 2.35,0 26.25,0 28.96,0.14 2.24,0.11 4.12,0.11 5.17,0.47 0.72,0.23 1.19,0.7 1.65,0.7 0.49,0 0.72,-0.47 0.72,-1.06 0,-0.84 -0.6,-2.24 -0.95,-5.5 -0.11,-1.19 -0.35,-6.39 -0.59,-7.76 -0.11,-0.58 -0.35,-1.31 -0.94,-1.31 -0.59,0 -0.82,0.59 -0.82,1.43 0,0.92 -0.35,2.91 -1.06,4.43 -0.71,1.55 -3.43,3.68 -8,3.79 l -18.14,0.37 c -0.7,0 -1.06,-0.37 -1.06,-1.32 l 0,-32.5 c 0,-0.73 0.13,-1.06 0.83,-1.06 l 15.07,0.12 c 2,0 3.65,0 5.3,0.12 2.82,0.23 4.35,0.58 5.4,2.12 0.48,0.61 0.83,1.2 1.31,1.2 0.46,0 0.58,-0.38 0.58,-0.96 0,-0.7 -0.58,-2.74 -0.95,-6.56 -0.22,-2.37 -0.46,-7.11 -0.46,-7.93 0,-1.02 0,-2.21 -0.82,-2.21 -0.59,0 -0.83,0.47 -0.83,1.05 -0.11,1.16 -0.24,2.8 -0.7,4.22 -0.6,1.66 -2.47,3.79 -6.12,4.26 -2.95,0.35 -15.78,0.35 -17.78,0.35 -0.59,0 -0.83,-0.21 -0.83,-1.05 l 0,-10.02 c 0,-11.29 0,-20.59 0.6,-25.55 0.35,-3.4 1.05,-5.99 4.59,-6.46 1.64,-0.26 4.24,-0.49 5.3,-0.49 0.69,0 0.92,-0.35 0.92,-0.7 0,-0.61 -0.57,-0.94 -1.87,-0.94 -6.47,0 -13.88,0.33 -14.48,0.33 -0.59,0 -8,-0.33 -11.53,-0.33 -1.31,0 -1.88,0.21 -1.88,0.94 0,0.35 0.23,0.7 0.93,0.7 1.07,0 2.48,0.23 3.54,0.49 2.35,0.47 2.94,3.06 3.41,6.46 0.58,4.96 0.58,14.26 0.58,25.55 l 0,20.74"
               inkscape:connector-curvature="0" />
            <path
               id="path4556"
               style="fill:#231f20;fill-opacity:1;fill-rule:nonzero;stroke:none"
               d="m 2315.97,3928.46 c 0.57,-1.06 0,-1.43 -0.48,-1.43 -0.35,0 -1.52,0.26 -3.53,0 -5.77,-0.58 -14,-3.3 -17.89,-4.96 -0.82,-0.35 -1.53,-0.59 -1.77,-0.59 -0.23,0 -0.58,0.24 -0.58,0.71 0,0.35 0.23,0.6 0.82,0.95 4.25,2.95 15.19,9.54 16.01,10 2,1.2 2.71,1.55 3.3,1.55 0.35,0 0.58,-0.24 1.17,-1.08 0.82,-1.17 1.65,-2.83 2.95,-5.15 z m -34.15,-50.14 c 0,18.34 0,21.62 -0.23,25.41 -0.23,4.02 -1.17,5.86 -5.05,6.68 -0.95,0.23 -2.95,0.35 -4.02,0.35 -0.46,0 -0.93,0.24 -0.93,0.7 0,0.73 0.59,0.96 1.89,0.96 5.29,0 12.71,-0.37 13.3,-0.37 0.81,0 24.24,0 26.96,0.14 2.23,0.11 4.11,0.35 5.05,0.58 0.59,0.12 1.07,0.59 1.65,0.59 0.35,0 0.47,-0.47 0.47,-1.06 0,-0.84 -0.59,-2.24 -0.94,-5.5 -0.11,-1.19 -0.35,-6.39 -0.59,-7.76 -0.12,-0.58 -0.36,-1.31 -0.83,-1.31 -0.7,0 -0.94,0.59 -0.94,1.53 0,0.82 -0.11,2.81 -0.71,4.22 -0.81,1.91 -2,3.32 -8.35,4.02 -2,0.25 -14.83,0.37 -16.13,0.37 -0.47,0 -0.7,-0.37 -0.7,-1.19 l 0,-32.5 c 0,-0.84 0.12,-1.19 0.7,-1.19 1.53,0 16.01,0 18.72,0.21 2.83,0.26 4.47,0.49 5.53,1.66 0.83,0.98 1.3,1.57 1.77,1.57 0.35,0 0.58,-0.24 0.58,-0.96 0,-0.7 -0.58,-2.74 -0.93,-6.56 -0.24,-2.37 -0.48,-6.76 -0.48,-7.56 0,-0.94 0,-2.21 -0.82,-2.21 -0.58,0 -0.82,0.47 -0.82,1.06 0,1.15 0,2.3 -0.48,3.84 -0.46,1.66 -1.52,3.67 -6.11,4.14 -3.19,0.36 -14.83,0.59 -16.84,0.59 -0.59,0 -0.82,-0.33 -0.82,-0.82 l 0,-10.37 c 0,-4.03 -0.12,-17.64 0,-20.12 0.35,-8.12 2.12,-9.65 13.65,-9.65 3.06,0 8.24,0 11.3,1.31 3.06,1.29 4.48,3.61 5.3,8.46 0.24,1.31 0.47,1.78 1.06,1.78 0.7,0 0.7,-0.96 0.7,-1.78 0,-0.96 -0.94,-8.95 -1.52,-11.43 -0.83,-3.06 -1.77,-3.06 -6.36,-3.06 -17.78,0 -25.66,0.68 -29.07,0.68 -0.59,0 -8.01,-0.33 -11.54,-0.33 -1.3,0 -1.89,0.21 -1.89,0.94 0,0.35 0.24,0.7 0.95,0.7 1.05,0 2.47,0.23 3.52,0.49 2.36,0.47 2.95,3.06 3.43,6.46 0.57,4.96 0.57,14.26 0.57,25.55 l 0,20.74"
               inkscape:connector-curvature="0" />
            <path
               id="path4558"
               style="fill:#231f20;fill-opacity:1;fill-rule:nonzero;stroke:none"
               d="m 2363.52,3880.2 c 0,9.08 0,21.03 0.12,25.05 0,1.31 0.34,1.9 1.4,2.37 0.96,0.47 5.31,0.84 7.66,0.84 14.01,0 27.44,-1.66 38.49,-13.34 4.83,-5.06 11.3,-14.71 11.3,-29.65 0,-10.84 -3.29,-22.15 -9.42,-28.13 -6.94,-6.93 -17.06,-10.95 -28.01,-10.95 -13.89,0 -18.49,2.48 -20.02,4.7 -0.94,1.31 -1.17,6 -1.28,8.97 -0.12,2.19 -0.24,13.03 -0.24,25.53 l 0,14.61 z m -9.89,-22.62 c 0,-11.29 0,-20.59 -0.59,-25.55 -0.46,-3.4 -1.06,-5.99 -3.42,-6.46 -1.06,-0.26 -2.46,-0.49 -3.53,-0.49 -0.7,0 -0.93,-0.35 -0.93,-0.7 0,-0.73 0.58,-0.94 1.88,-0.94 3.53,0 10.95,0.33 11.53,0.33 1.18,0 16.01,-1.39 26.14,-1.39 20.01,0 30.59,8.26 35.67,13.54 6.59,6.93 12.7,18.36 12.7,33.2 0,13.99 -5.53,23.75 -11.41,29.92 -14.01,14.46 -35.55,13.38 -47.2,13.38 -7.07,0 -14.48,-0.37 -15.9,-0.37 -0.59,0 -8,0.37 -13.3,0.37 -1.29,0 -1.88,-0.23 -1.88,-0.96 0,-0.46 0.48,-0.7 0.95,-0.7 1.05,0 3.05,-0.12 3.99,-0.35 3.89,-0.82 4.82,-2.66 5.07,-6.68 0.23,-3.79 0.23,-7.07 0.23,-25.41 l 0,-20.74"
               inkscape:connector-curvature="0" />
            <path
               id="path4560"
               style="fill:#231f20;fill-opacity:1;fill-rule:nonzero;stroke:none"
               d="m 2491,3928.46 c 0.59,-1.06 0,-1.43 -0.47,-1.43 -0.36,0 -1.53,0.26 -3.54,0 -5.76,-0.58 -14.01,-3.3 -17.89,-4.96 -0.82,-0.35 -1.53,-0.59 -1.76,-0.59 -0.23,0 -0.59,0.24 -0.59,0.71 0,0.35 0.23,0.6 0.82,0.95 4.24,2.95 15.18,9.54 16,10 2,1.2 2.72,1.55 3.31,1.55 0.35,0 0.58,-0.24 1.17,-1.08 0.82,-1.17 1.65,-2.83 2.95,-5.15 z m -34.14,-50.14 c 0,18.34 0,21.62 -0.24,25.41 -0.23,4.02 -1.18,5.86 -5.06,6.68 -0.94,0.23 -2.94,0.35 -4,0.35 -0.47,0 -0.94,0.24 -0.94,0.7 0,0.73 0.59,0.96 1.89,0.96 5.28,0 12.7,-0.37 13.3,-0.37 0.82,0 24.24,0 26.95,0.14 2.24,0.11 4.11,0.35 5.06,0.58 0.59,0.12 1.06,0.59 1.65,0.59 0.36,0 0.47,-0.47 0.47,-1.06 0,-0.84 -0.6,-2.24 -0.94,-5.5 -0.12,-1.19 -0.35,-6.39 -0.59,-7.76 -0.12,-0.58 -0.35,-1.31 -0.82,-1.31 -0.72,0 -0.95,0.59 -0.95,1.53 0,0.82 -0.12,2.81 -0.71,4.22 -0.82,1.91 -1.99,3.32 -8.36,4.02 -1.99,0.25 -14.82,0.37 -16.12,0.37 -0.47,0 -0.7,-0.37 -0.7,-1.19 l 0,-32.5 c 0,-0.84 0.13,-1.19 0.7,-1.19 1.53,0 16.02,0 18.72,0.21 2.83,0.26 4.47,0.49 5.53,1.66 0.82,0.98 1.3,1.57 1.77,1.57 0.35,0 0.59,-0.24 0.59,-0.96 0,-0.7 -0.59,-2.74 -0.95,-6.56 -0.24,-2.37 -0.47,-6.76 -0.47,-7.56 0,-0.94 0,-2.21 -0.82,-2.21 -0.59,0 -0.82,0.47 -0.82,1.06 0,1.15 0,2.3 -0.47,3.84 -0.48,1.66 -1.53,3.67 -6.13,4.14 -3.17,0.36 -14.83,0.59 -16.83,0.59 -0.59,0 -0.82,-0.33 -0.82,-0.82 l 0,-10.37 c 0,-4.03 -0.12,-17.64 0,-20.12 0.36,-8.12 2.12,-9.65 13.66,-9.65 3.06,0 8.23,0 11.29,1.31 3.06,1.29 4.47,3.61 5.29,8.46 0.24,1.31 0.49,1.78 1.07,1.78 0.71,0 0.71,-0.96 0.71,-1.78 0,-0.96 -0.96,-8.95 -1.54,-11.43 -0.82,-3.06 -1.76,-3.06 -6.35,-3.06 -17.78,0 -25.65,0.68 -29.07,0.68 -0.6,0 -8.02,-0.33 -11.54,-0.33 -1.31,0 -1.88,0.21 -1.88,0.94 0,0.35 0.23,0.7 0.93,0.7 1.06,0 2.48,0.23 3.54,0.49 2.34,0.47 2.94,3.06 3.41,6.46 0.59,4.96 0.59,14.26 0.59,25.55 l 0,20.74"
               inkscape:connector-curvature="0" />
            <path
               id="path4562"
               style="fill:#231f20;fill-opacity:1;fill-rule:nonzero;stroke:none"
               d="m 2538.07,3906.56 c 0,0.71 0.36,1.19 0.95,1.41 1.17,0.37 4.36,0.72 7.88,0.72 12.61,0 20.37,-8.87 20.37,-23.55 0,-8.95 -3.07,-15.3 -7.19,-18.13 -2.7,-1.91 -6,-2.24 -8.82,-2.24 -5.18,0 -10.59,0.82 -12.37,1.87 -0.59,0.37 -0.82,0.82 -0.82,1.43 l 0,38.49 z m -9.41,-48.98 c 0,-11.29 0,-20.59 -0.59,-25.55 -0.47,-3.4 -1.06,-5.99 -3.41,-6.46 -1.05,-0.26 -2.48,-0.49 -3.54,-0.49 -0.69,0 -0.93,-0.35 -0.93,-0.7 0,-0.73 0.59,-0.94 1.88,-0.94 3.53,0 10.95,0.33 11.07,0.33 0.57,0 8,-0.33 14.47,-0.33 1.3,0 1.88,0.33 1.88,0.94 0,0.35 -0.23,0.7 -0.93,0.7 -1.06,0 -3.65,0.23 -5.31,0.49 -3.52,0.47 -4.23,3.06 -4.58,6.46 -0.6,4.96 -0.6,14.26 -0.6,25.55 l 0,2.83 c 0,0.57 0.23,0.94 0.82,0.94 l 14.49,-0.24 c 0.7,0 1.06,-0.25 1.53,-0.7 2.36,-3.07 7.89,-10.94 12.83,-17.44 6.71,-8.83 10.83,-14.57 15.89,-17.31 3.06,-1.66 6,-2.22 12.6,-2.22 l 8.35,0 c 2.12,0 2.82,0.21 2.82,0.94 0,0.35 -0.46,0.7 -1.06,0.7 -0.7,0 -2.35,0 -4.59,0.37 -2.93,0.47 -8,1.78 -14.35,8.44 -6.83,7.32 -14.84,17.79 -24.49,30.15 10.6,9.77 14.24,18.46 14.24,27.19 0,8.15 -5.17,13.91 -8.11,16.04 -6.24,4.43 -14.13,5.15 -21.54,5.15 -3.66,0 -12.6,-0.37 -13.9,-0.37 -0.58,0 -8,0.37 -13.3,0.37 -1.29,0 -1.88,-0.23 -1.88,-0.96 0,-0.46 0.46,-0.7 0.94,-0.7 1.07,0 3.06,-0.12 4,-0.35 3.9,-0.82 4.83,-2.66 5.06,-6.68 0.24,-3.79 0.24,-7.07 0.24,-25.41 l 0,-20.74"
               inkscape:connector-curvature="0" />
            <path
               id="path4564"
               style="fill:#231f20;fill-opacity:1;fill-rule:nonzero;stroke:none"
               d="m 2624.11,3862.38 c -0.34,0 -0.58,0.24 -0.34,0.84 l 10.36,31.8 c 0.58,1.78 1.16,1.78 1.75,0 l 11.19,-31.8 c 0.12,-0.49 0.12,-0.84 -0.47,-0.84 l -22.49,0 z m -16.47,-25.97 c -2.12,-5.88 -4.47,-10.37 -9.89,-11.1 -0.94,-0.11 -2.59,-0.23 -3.42,-0.23 -0.58,0 -1.05,-0.24 -1.05,-0.7 0,-0.73 0.7,-0.94 2.24,-0.94 5.53,0 12,0.33 13.29,0.33 1.31,0 6.36,-0.33 9.19,-0.33 1.06,0 1.77,0.21 1.77,0.94 0,0.46 -0.36,0.7 -1.18,0.7 l -1.18,0 c -2,0 -4.48,1.07 -4.48,3.44 0,2.12 0.59,4.9 1.65,7.89 l 7.06,20.84 c 0.25,0.56 0.59,0.91 1.19,0.91 l 25.3,0 c 0.59,0 0.83,-0.21 1.07,-0.68 l 10.94,-28.96 c 0.71,-1.9 0,-2.95 -0.71,-3.21 -0.47,-0.11 -0.82,-0.35 -0.82,-0.82 0,-0.72 1.29,-0.72 3.53,-0.84 8.13,-0.21 16.72,-0.21 18.48,-0.21 1.3,0 2.35,0.21 2.35,0.94 0,0.58 -0.46,0.7 -1.18,0.7 -1.17,0 -2.93,0.12 -4.7,0.7 -2.48,0.72 -5.88,2.62 -10.12,13.11 -7.17,17.87 -25.67,66.5 -27.43,70.95 -1.41,3.66 -1.88,4.24 -2.59,4.24 -0.71,0 -1.17,-0.72 -2.59,-4.59 l -26.72,-73.08"
               inkscape:connector-curvature="0" />
            <path
               id="path4566"
               style="fill:#231f20;fill-opacity:1;fill-rule:nonzero;stroke:none"
               d="m 2709.69,3857.34 c 0,-17.28 0.48,-24.86 2.59,-26.93 1.89,-1.89 4.95,-2.71 14.13,-2.71 6.23,0 11.41,0.11 14.24,3.53 1.53,1.84 2.71,4.81 3.06,7.05 0.11,0.96 0.36,1.54 1.06,1.54 0.6,0 0.7,-0.46 0.7,-1.77 0,-1.31 -0.82,-8.34 -1.76,-11.78 -0.82,-2.73 -1.17,-3.18 -7.41,-3.18 -16.95,0 -24.73,0.68 -31.55,0.68 -1.06,0 -8,-0.33 -11.53,-0.33 -1.3,0 -1.89,0.21 -1.89,0.94 0,0.35 0.24,0.7 0.94,0.7 1.06,0 2.48,0.23 3.53,0.49 2.35,0.47 2.95,3.06 3.42,6.46 0.58,4.96 0.58,14.26 0.58,25.55 l 0,20.74 c 0,18.34 0,21.62 -0.23,25.41 -0.24,4.02 -1.17,5.86 -5.05,6.68 -0.96,0.23 -2.95,0.35 -4.02,0.35 -0.47,0 -0.93,0.24 -0.93,0.7 0,0.73 0.59,0.96 1.89,0.96 5.29,0 12.7,-0.37 13.29,-0.37 0.59,0 9.19,0.37 12.71,0.37 1.29,0 1.89,-0.23 1.89,-0.96 0,-0.46 -0.47,-0.7 -0.96,-0.7 -0.81,0 -2.47,-0.12 -3.87,-0.35 -3.41,-0.57 -4.35,-2.54 -4.59,-6.68 -0.24,-3.79 -0.24,-7.07 -0.24,-25.41 l 0,-20.98"
               inkscape:connector-curvature="0" />
            <path
               id="path4568"
               style="fill:#231f20;fill-opacity:1;fill-rule:nonzero;stroke:none"
               d="m 2769.49,3878.32 c 0,18.34 0,21.62 -0.24,25.41 -0.23,4.02 -1.17,5.86 -5.06,6.68 -0.94,0.23 -2.94,0.35 -4,0.35 -0.47,0 -0.94,0.24 -0.94,0.7 0,0.73 0.59,0.96 1.87,0.96 5.31,0 12.73,-0.37 13.31,-0.37 0.82,0 24.26,0 26.96,0.14 2.24,0.11 4.12,0.35 5.06,0.58 0.59,0.12 1.05,0.59 1.65,0.59 0.36,0 0.47,-0.47 0.47,-1.06 0,-0.84 -0.59,-2.24 -0.94,-5.5 -0.13,-1.19 -0.36,-6.39 -0.59,-7.76 -0.12,-0.58 -0.36,-1.31 -0.83,-1.31 -0.7,0 -0.94,0.59 -0.94,1.53 0,0.82 -0.11,2.81 -0.7,4.22 -0.82,1.91 -2.01,3.32 -8.36,4.02 -2.01,0.25 -14.83,0.37 -16.13,0.37 -0.47,0 -0.71,-0.37 -0.71,-1.19 l 0,-32.5 c 0,-0.84 0.13,-1.19 0.71,-1.19 1.53,0 16.01,0 18.71,0.21 2.83,0.26 4.48,0.49 5.53,1.66 0.84,0.98 1.3,1.57 1.78,1.57 0.35,0 0.58,-0.24 0.58,-0.96 0,-0.7 -0.58,-2.74 -0.94,-6.56 -0.23,-2.37 -0.47,-6.76 -0.47,-7.56 0,-0.94 0,-2.21 -0.82,-2.21 -0.59,0 -0.82,0.47 -0.82,1.06 0,1.15 0,2.3 -0.48,3.84 -0.47,1.66 -1.53,3.67 -6.11,4.14 -3.19,0.36 -14.84,0.59 -16.85,0.59 -0.58,0 -0.82,-0.33 -0.82,-0.82 l 0,-10.37 c 0,-4.03 -0.11,-17.64 0,-20.12 0.36,-8.12 2.13,-9.65 13.66,-9.65 3.06,0 8.24,0 11.29,1.31 3.06,1.29 4.49,3.61 5.31,8.46 0.23,1.31 0.47,1.78 1.06,1.78 0.7,0 0.7,-0.96 0.7,-1.78 0,-0.96 -0.93,-8.95 -1.53,-11.43 -0.82,-3.06 -1.76,-3.06 -6.35,-3.06 -17.78,0 -25.66,0.68 -29.08,0.68 -0.58,0 -8,-0.33 -11.53,-0.33 -1.3,0 -1.89,0.21 -1.89,0.94 0,0.35 0.24,0.7 0.94,0.7 1.06,0 2.48,0.23 3.53,0.49 2.36,0.47 2.94,3.06 3.43,6.46 0.58,4.96 0.58,14.26 0.58,25.55 l 0,20.74"
               inkscape:connector-curvature="0" />
            <path
               id="path4570"
               style="fill:#231f20;fill-opacity:1;fill-rule:nonzero;stroke:none"
               d="m 2889.43,3880.2 c 0,9.08 0,21.03 0.11,25.05 0,1.31 0.35,1.9 1.43,2.37 0.92,0.47 5.3,0.84 7.64,0.84 14.01,0 27.43,-1.66 38.49,-13.34 4.83,-5.06 11.3,-14.71 11.3,-29.65 0,-10.84 -3.3,-22.15 -9.42,-28.13 -6.94,-6.93 -17.07,-10.95 -28.01,-10.95 -13.89,0 -18.48,2.48 -20,4.7 -0.95,1.31 -1.2,6 -1.31,8.97 -0.12,2.19 -0.23,13.03 -0.23,25.53 l 0,14.61 z m -9.89,-22.62 c 0,-11.29 0,-20.59 -0.58,-25.55 -0.48,-3.4 -1.07,-5.99 -3.42,-6.46 -1.07,-0.26 -2.47,-0.49 -3.52,-0.49 -0.71,0 -0.95,-0.35 -0.95,-0.7 0,-0.73 0.59,-0.94 1.88,-0.94 3.53,0 10.96,0.33 11.54,0.33 1.17,0 16.01,-1.39 26.13,-1.39 19.99,0 30.6,8.26 35.67,13.54 6.58,6.93 12.71,18.36 12.71,33.2 0,13.99 -5.53,23.75 -11.43,29.92 -14.01,14.46 -35.54,13.38 -47.19,13.38 -7.06,0 -14.47,-0.37 -15.89,-0.37 -0.58,0 -8.01,0.37 -13.3,0.37 -1.3,0 -1.88,-0.23 -1.88,-0.96 0,-0.46 0.46,-0.7 0.92,-0.7 1.08,0 3.08,-0.12 4.02,-0.35 3.87,-0.82 4.83,-2.66 5.06,-6.68 0.23,-3.79 0.23,-7.07 0.23,-25.41 l 0,-20.74"
               inkscape:connector-curvature="0" />
            <path
               id="path4572"
               style="fill:#231f20;fill-opacity:1;fill-rule:nonzero;stroke:none"
               d="m 2987.48,3878.32 c 0,18.34 0,21.62 -0.23,25.41 -0.25,4.02 -1.18,5.86 -5.07,6.68 -0.93,0.23 -2.95,0.35 -4,0.35 -0.47,0 -0.95,0.24 -0.95,0.7 0,0.73 0.59,0.96 1.89,0.96 5.29,0 12.7,-0.37 13.3,-0.37 0.83,0 24.25,0 26.94,0.14 2.25,0.11 4.16,0.35 5.09,0.58 0.59,0.12 1.05,0.59 1.64,0.59 0.36,0 0.48,-0.47 0.48,-1.06 0,-0.84 -0.6,-2.24 -0.96,-5.5 -0.11,-1.19 -0.36,-6.39 -0.57,-7.76 -0.12,-0.58 -0.35,-1.31 -0.8,-1.31 -0.72,0 -0.98,0.59 -0.98,1.53 0,0.82 -0.1,2.81 -0.68,4.22 -0.85,1.91 -2.02,3.32 -8.36,4.02 -2.01,0.25 -14.86,0.37 -16.15,0.37 -0.46,0 -0.69,-0.37 -0.69,-1.19 l 0,-32.5 c 0,-0.84 0.1,-1.19 0.69,-1.19 1.52,0 16.01,0 18.72,0.21 2.82,0.26 4.47,0.49 5.55,1.66 0.82,0.98 1.29,1.57 1.76,1.57 0.35,0 0.59,-0.24 0.59,-0.96 0,-0.7 -0.59,-2.74 -0.94,-6.56 -0.23,-2.37 -0.49,-6.76 -0.49,-7.56 0,-0.94 0,-2.21 -0.82,-2.21 -0.58,0 -0.83,0.47 -0.83,1.06 0,1.15 0,2.3 -0.47,3.84 -0.46,1.66 -1.53,3.67 -6.1,4.14 -3.19,0.36 -14.86,0.59 -16.85,0.59 -0.58,0 -0.81,-0.33 -0.81,-0.82 l 0,-10.37 c 0,-4.03 -0.13,-17.64 0,-20.12 0.35,-8.12 2.07,-9.65 13.64,-9.65 3.06,0 8.24,0 11.32,1.31 3.03,1.29 4.46,3.61 5.28,8.46 0.21,1.31 0.45,1.78 1.03,1.78 0.73,0 0.73,-0.96 0.73,-1.78 0,-0.96 -0.96,-8.95 -1.55,-11.43 -0.8,-3.06 -1.74,-3.06 -6.33,-3.06 -17.77,0 -25.64,0.68 -29.08,0.68 -0.6,0 -8.01,-0.33 -11.53,-0.33 -1.3,0 -1.87,0.21 -1.87,0.94 0,0.35 0.21,0.7 0.92,0.7 1.08,0 2.48,0.23 3.54,0.49 2.36,0.47 2.94,3.06 3.41,6.46 0.59,4.96 0.59,14.26 0.59,25.55 l 0,20.74"
               inkscape:connector-curvature="0" />
            <path
               id="path4574"
               style="fill:#231f20;fill-opacity:1;fill-rule:nonzero;stroke:none"
               d="m 3107.42,3857.34 c 0,-17.28 0.47,-24.86 2.6,-26.93 1.87,-1.89 4.92,-2.71 14.12,-2.71 6.23,0 11.39,0.11 14.24,3.53 1.54,1.84 2.71,4.81 3.07,7.05 0.11,0.96 0.35,1.54 1.04,1.54 0.58,0 0.71,-0.46 0.71,-1.77 0,-1.31 -0.82,-8.34 -1.75,-11.78 -0.81,-2.73 -1.18,-3.18 -7.43,-3.18 -16.95,0 -24.71,0.68 -31.52,0.68 -1.07,0 -8.02,-0.33 -11.54,-0.33 -1.31,0 -1.91,0.21 -1.91,0.94 0,0.35 0.25,0.7 0.94,0.7 1.06,0 2.51,0.23 3.55,0.49 2.33,0.47 2.92,3.06 3.39,6.46 0.61,4.96 0.61,14.26 0.61,25.55 l 0,20.74 c 0,18.34 0,21.62 -0.25,25.41 -0.24,4.02 -1.18,5.86 -5.04,6.68 -0.94,0.23 -2.95,0.35 -4.01,0.35 -0.49,0 -0.95,0.24 -0.95,0.7 0,0.73 0.6,0.96 1.89,0.96 5.3,0 12.73,-0.37 13.32,-0.37 0.57,0 9.18,0.37 12.7,0.37 1.26,0 1.87,-0.23 1.87,-0.96 0,-0.46 -0.49,-0.7 -0.96,-0.7 -0.81,0 -2.45,-0.12 -3.84,-0.35 -3.44,-0.57 -4.38,-2.54 -4.61,-6.68 -0.24,-3.79 -0.24,-7.07 -0.24,-25.41 l 0,-20.98"
               inkscape:connector-curvature="0" />
            <path
               id="path4576"
               style="fill:#231f20;fill-opacity:1;fill-rule:nonzero;stroke:none"
               d="m 3176.27,3862.38 c -0.35,0 -0.59,0.24 -0.35,0.84 l 10.35,31.8 c 0.59,1.78 1.19,1.78 1.8,0 l 11.17,-31.8 c 0.14,-0.49 0.14,-0.84 -0.47,-0.84 l -22.5,0 z m -16.45,-25.97 c -2.14,-5.88 -4.51,-10.37 -9.88,-11.1 -0.98,-0.11 -2.63,-0.23 -3.46,-0.23 -0.58,0 -1.07,-0.24 -1.07,-0.7 0,-0.73 0.72,-0.94 2.27,-0.94 5.52,0 12.01,0.33 13.32,0.33 1.29,0 6.32,-0.33 9.2,-0.33 1.05,0 1.73,0.21 1.73,0.94 0,0.46 -0.33,0.7 -1.15,0.7 l -1.19,0 c -2.03,0 -4.51,1.07 -4.51,3.44 0,2.12 0.58,4.9 1.66,7.89 l 7.05,20.84 c 0.23,0.56 0.59,0.91 1.17,0.91 l 25.35,0 c 0.59,0 0.8,-0.21 1.06,-0.68 l 10.92,-28.96 c 0.7,-1.9 0,-2.95 -0.71,-3.21 -0.47,-0.11 -0.8,-0.35 -0.8,-0.82 0,-0.72 1.25,-0.72 3.52,-0.84 8.1,-0.21 16.7,-0.21 18.47,-0.21 1.29,0 2.37,0.21 2.37,0.94 0,0.58 -0.49,0.7 -1.19,0.7 -1.18,0 -2.95,0.12 -4.67,0.7 -2.5,0.72 -5.94,2.62 -10.14,13.11 -7.21,17.87 -25.68,66.5 -27.42,70.95 -1.41,3.66 -1.88,4.24 -2.6,4.24 -0.7,0 -1.19,-0.72 -2.6,-4.59 l -26.7,-73.08"
               inkscape:connector-curvature="0" />
            <path
               id="path4578"
               style="fill:#231f20;fill-opacity:1;fill-rule:nonzero;stroke:none"
               d="m 3245.14,3878.32 c 0,18.34 0,21.62 -0.24,25.41 -0.25,4.02 -1.17,5.86 -5.04,6.68 -0.93,0.23 -2.95,0.35 -4.02,0.35 -0.49,0 -0.96,0.24 -0.96,0.7 0,0.73 0.61,0.96 1.92,0.96 5.27,0 12.48,-0.37 13.51,-0.37 1.06,0 8.15,0.37 11.64,0.37 1.31,0 1.88,-0.23 1.88,-0.96 0,-0.46 -0.43,-0.7 -0.92,-0.7 -0.84,0 -1.54,-0.12 -2.95,-0.35 -3.16,-0.45 -4.12,-2.54 -4.35,-6.68 -0.22,-3.79 -0.22,-7.07 -0.22,-25.41 l 0,-16.52 c 0,-16.96 3.77,-24.22 8.81,-29.07 5.78,-5.41 11.07,-6.46 17.77,-6.46 7.17,0 14.28,3.44 18.48,8.46 5.43,6.72 6.84,16.73 6.84,28.84 l 0,14.75 c 0,18.34 0,21.62 -0.22,25.41 -0.21,4.02 -1.19,5.86 -5.1,6.68 -0.93,0.23 -2.95,0.35 -3.96,0.35 -0.45,0 -0.94,0.24 -0.94,0.7 0,0.73 0.59,0.96 1.86,0.96 5.29,0 11.75,-0.37 12.48,-0.37 0.82,0 6.36,0.37 9.88,0.37 1.29,0 1.89,-0.23 1.89,-0.96 0,-0.46 -0.47,-0.7 -0.95,-0.7 -0.82,0 -1.53,0 -2.97,-0.35 -3.11,-0.57 -4.08,-2.54 -4.32,-6.68 -0.23,-3.79 -0.23,-7.07 -0.23,-25.41 l 0,-12.62 c 0,-12.75 -1.43,-26.81 -10.82,-35.17 -8.48,-7.58 -17.29,-8.73 -24.26,-8.73 -3.99,0 -15.9,0.47 -24.24,8.38 -5.76,5.5 -10.25,13.73 -10.25,30.93 l 0,17.21"
               inkscape:connector-curvature="0" />
            <path
               id="path4580"
               style="fill:#231f20;fill-opacity:1;fill-rule:nonzero;stroke:none"
               d="m 3342.11,3824.96 c -1.64,0.82 -1.76,1.31 -1.76,4.49 0,5.88 0.47,10.61 0.61,12.46 0.11,1.27 0.35,1.88 0.93,1.88 0.71,0 0.82,-0.35 0.82,-1.29 0,-1.05 0,-2.68 0.36,-4.34 1.77,-8.71 9.55,-12.01 17.42,-12.01 11.31,0 16.81,8.11 16.81,15.65 0,8.14 -3.37,12.83 -13.51,21.17 l -5.31,4.39 c -12.44,10.24 -15.3,17.52 -15.3,25.51 0,12.62 9.44,21.21 24.36,21.21 4.61,0 8.03,-0.47 10.96,-1.19 2.22,-0.47 3.18,-0.59 4.12,-0.59 0.93,0 1.21,-0.25 1.21,-0.84 0,-0.58 -0.49,-4.43 -0.49,-12.42 0,-1.91 -0.23,-2.73 -0.84,-2.73 -0.7,0 -0.82,0.6 -0.94,1.54 -0.11,1.41 -0.84,4.57 -1.54,5.88 -0.7,1.29 -3.87,6.23 -14.67,6.23 -8.16,0 -14.53,-5.06 -14.53,-13.65 0,-6.7 3.32,-10.7 14.41,-19.77 l 3.25,-2.61 c 13.9,-10.96 17.2,-18.25 17.2,-27.64 0,-4.84 -1.85,-13.81 -10,-19.55 -5.07,-3.56 -11.4,-4.94 -17.77,-4.94 -5.55,0 -10.94,0.82 -15.8,3.16"
               inkscape:connector-curvature="0" />
            <path
               id="path4582"
               style="fill:#231f20;fill-opacity:1;fill-rule:nonzero;stroke:none"
               d="m 3423.48,3862.38 c -0.36,0 -0.59,0.24 -0.36,0.84 l 10.38,31.8 c 0.58,1.78 1.15,1.78 1.71,0 l 11.2,-31.8 c 0.11,-0.49 0.11,-0.84 -0.49,-0.84 l -22.44,0 z m -16.51,-25.97 c -2.09,-5.88 -4.45,-10.37 -9.9,-11.1 -0.94,-0.11 -2.56,-0.23 -3.36,-0.23 -0.6,0 -1.07,-0.24 -1.07,-0.7 0,-0.73 0.7,-0.94 2.22,-0.94 5.53,0 11.98,0.33 13.28,0.33 1.29,0 6.39,-0.33 9.18,-0.33 1.06,0 1.76,0.21 1.76,0.94 0,0.46 -0.35,0.7 -1.15,0.7 l -1.21,0 c -1.97,0 -4.42,1.07 -4.42,3.44 0,2.12 0.59,4.9 1.65,7.89 l 7.05,20.84 c 0.23,0.56 0.6,0.91 1.19,0.91 l 25.29,0 c 0.57,0 0.8,-0.21 1.04,-0.68 l 10.95,-28.96 c 0.71,-1.9 0,-2.95 -0.7,-3.21 -0.47,-0.11 -0.84,-0.35 -0.84,-0.82 0,-0.72 1.31,-0.72 3.57,-0.84 8.11,-0.21 16.68,-0.21 18.48,-0.21 1.31,0 2.36,0.21 2.36,0.94 0,0.58 -0.48,0.7 -1.19,0.7 -1.17,0 -2.97,0.12 -4.72,0.7 -2.48,0.72 -5.88,2.62 -10.14,13.11 -7.17,17.87 -25.65,66.5 -27.42,70.95 -1.41,3.66 -1.9,4.24 -2.6,4.24 -0.68,0 -1.15,-0.72 -2.56,-4.59 l -26.74,-73.08"
               inkscape:connector-curvature="0" />
            <path
               id="path4584"
               style="fill:#231f20;fill-opacity:1;fill-rule:nonzero;stroke:none"
               d="m 3502.32,3839.47 c 0.26,-9.67 1.41,-12.73 4.59,-13.69 2.27,-0.58 4.83,-0.7 5.88,-0.7 0.59,0 0.96,-0.24 0.96,-0.7 0,-0.73 -0.72,-0.94 -2.11,-0.94 -6.74,0 -11.41,0.33 -12.48,0.33 -1.07,0 -6.02,-0.33 -11.31,-0.33 -1.19,0 -1.89,0.1 -1.89,0.94 0,0.46 0.35,0.7 0.93,0.7 0.96,0 3.09,0.12 4.85,0.7 2.91,0.84 3.51,4.28 3.51,14.96 l 0.1,67.48 c 0,4.55 0.37,5.86 1.31,5.86 0.96,0 2.97,-2.62 4.16,-3.79 1.76,-1.95 19.3,-20.91 37.4,-40.35 11.68,-12.46 24.46,-26.87 28.26,-30.7 l -1.3,59.8 c -0.14,7.64 -0.94,10.22 -4.57,11.14 -2.13,0.46 -4.87,0.58 -5.81,0.58 -0.82,0 -0.93,0.35 -0.93,0.82 0,0.72 0.93,0.84 2.36,0.84 5.29,0 10.96,-0.37 12.27,-0.37 1.29,0 5.13,0.37 10,0.37 1.29,0 2.11,-0.12 2.11,-0.84 0,-0.47 -0.47,-0.82 -1.29,-0.82 -0.59,0 -1.41,0 -2.84,-0.35 -3.9,-0.82 -4.35,-3.38 -4.35,-10.47 l -0.24,-68.96 c 0,-7.8 -0.25,-8.36 -1.05,-8.36 -0.92,0 -2.34,1.29 -8.59,7.56 -1.31,1.17 -18.27,18.47 -30.75,31.85 -13.63,14.73 -26.95,29.55 -30.68,33.81 l 1.5,-56.37"
               inkscape:connector-curvature="0" />
            <path
               id="path4586"
               style="fill:#231f20;fill-opacity:1;fill-rule:nonzero;stroke:none"
               d="m 3613.77,3839.47 c 0.25,-9.67 1.44,-12.73 4.63,-13.69 2.22,-0.58 4.8,-0.7 5.88,-0.7 0.58,0 0.93,-0.24 0.93,-0.7 0,-0.73 -0.7,-0.94 -2.14,-0.94 -6.68,0 -11.41,0.33 -12.46,0.33 -1.06,0 -6,-0.33 -11.29,-0.33 -1.18,0 -1.88,0.1 -1.88,0.94 0,0.46 0.37,0.7 0.96,0.7 0.92,0 3.03,0.12 4.78,0.7 2.95,0.84 3.56,4.28 3.56,14.96 l 0.12,67.48 c 0,4.55 0.35,5.86 1.28,5.86 0.94,0 2.95,-2.62 4.11,-3.79 1.77,-1.95 19.31,-20.91 37.44,-40.35 11.64,-12.46 24.49,-26.87 28.26,-30.7 l -1.27,59.8 c -0.14,7.64 -0.96,10.22 -4.61,11.14 -2.15,0.46 -4.84,0.58 -5.76,0.58 -0.82,0 -0.94,0.35 -0.94,0.82 0,0.72 0.94,0.84 2.34,0.84 5.3,0 10.94,-0.37 12.23,-0.37 1.29,0 5.18,0.37 10,0.37 1.29,0 2.11,-0.12 2.11,-0.84 0,-0.47 -0.45,-0.82 -1.31,-0.82 -0.58,0 -1.4,0 -2.79,-0.35 -3.87,-0.82 -4.36,-3.38 -4.36,-10.47 l -0.23,-68.96 c 0,-7.8 -0.25,-8.36 -1.06,-8.36 -0.95,0 -2.36,1.29 -8.57,7.56 -1.33,1.17 -18.24,18.47 -30.76,31.85 -13.63,14.73 -26.93,29.55 -30.72,33.81 l 1.52,-56.37"
               inkscape:connector-curvature="0" />
            <path
               id="path4588"
               style="fill:#231f20;fill-opacity:1;fill-rule:nonzero;stroke:none"
               d="m 3722.09,3878.32 c 0,18.34 0,21.62 -0.23,25.41 -0.26,4.02 -1.2,5.86 -5.06,6.68 -0.94,0.23 -2.93,0.35 -4.01,0.35 -0.49,0 -0.93,0.24 -0.93,0.7 0,0.73 0.58,0.96 1.87,0.96 5.27,0 12.73,-0.37 13.3,-0.37 0.82,0 24.26,0 26.97,0.14 2.21,0.11 4.07,0.35 5.04,0.58 0.59,0.12 1.06,0.59 1.66,0.59 0.35,0 0.47,-0.47 0.47,-1.06 0,-0.84 -0.58,-2.24 -0.96,-5.5 -0.11,-1.19 -0.35,-6.39 -0.58,-7.76 -0.12,-0.58 -0.35,-1.31 -0.84,-1.31 -0.72,0 -0.94,0.59 -0.94,1.53 0,0.82 -0.14,2.81 -0.68,4.22 -0.84,1.91 -2.01,3.32 -8.4,4.02 -1.97,0.25 -14.79,0.37 -16.07,0.37 -0.49,0 -0.73,-0.37 -0.73,-1.19 l 0,-32.5 c 0,-0.84 0.14,-1.19 0.73,-1.19 1.52,0 15.97,0 18.71,0.21 2.83,0.26 4.47,0.49 5.52,1.66 0.78,0.98 1.27,1.57 1.74,1.57 0.37,0 0.61,-0.24 0.61,-0.96 0,-0.7 -0.61,-2.74 -0.96,-6.56 -0.25,-2.37 -0.47,-6.76 -0.47,-7.56 0,-0.94 0,-2.21 -0.8,-2.21 -0.6,0 -0.84,0.47 -0.84,1.06 0,1.15 0,2.3 -0.47,3.84 -0.45,1.66 -1.5,3.67 -6.11,4.14 -3.2,0.36 -14.83,0.59 -16.82,0.59 -0.6,0 -0.84,-0.33 -0.84,-0.82 l 0,-10.37 c 0,-4.03 -0.11,-17.64 0,-20.12 0.35,-8.12 2.15,-9.65 13.67,-9.65 3.03,0 8.25,0 11.29,1.31 3.05,1.29 4.46,3.61 5.32,8.46 0.21,1.31 0.45,1.78 1.05,1.78 0.7,0 0.7,-0.96 0.7,-1.78 0,-0.96 -0.95,-8.95 -1.54,-11.43 -0.82,-3.06 -1.76,-3.06 -6.37,-3.06 -17.79,0 -25.66,0.68 -29.06,0.68 -0.57,0 -8.03,-0.33 -11.5,-0.33 -1.33,0 -1.9,0.21 -1.9,0.94 0,0.35 0.24,0.7 0.92,0.7 1.06,0 2.48,0.23 3.54,0.49 2.34,0.47 2.93,3.06 3.39,6.46 0.61,4.96 0.61,14.26 0.61,25.55 l 0,20.74"
               inkscape:connector-curvature="0" />
          </g>
        </g>
      </g>
    </g>
    <text
       xml:space="preserve"
       style="font-size:98.33942413px;font-style:normal;font-weight:normal;line-height:125%;letter-spacing:0px;word-spacing:0px;fill:#000000;fill-opacity:1;stroke:none;font-family:Sans"
       x="60.935135"
       y="-2847.0093"
       id="text4651"
       sodipodi:linespacing="125%"
       transform="scale(0.94619035,1.0568698)"><tspan
         sodipodi:role="line"
         id="tspan4653"
         x="60.935135"
         y="-2847.0093">Etienne Kneuss, Viktor Kuncak and Philippe Suter</tspan></text>
    <text
       xml:space="preserve"
       style="font-size:82.43534851px;font-style:normal;font-weight:normal;line-height:125%;letter-spacing:0px;word-spacing:0px;fill:#ed1c24;fill-opacity:1;stroke:none;font-family:Sans"
       x="58.797573"
       y="-2918.51"
       id="text4655"
       sodipodi:linespacing="125%"><tspan
         sodipodi:role="line"
         id="tspan4657"
         x="58.797573"
         y="-2918.51">Laboratory of Automated Reasonning and Analysis</tspan></text>
    <g
       id="g3533"
       transform="matrix(3.1086318,0,0,3.1086318,319.45874,-5177.1572)">
      <path
         inkscape:connector-curvature="0"
         id="path3340"
         d="m 236.29768,866.39635 0,-65.21922 17.23273,0 0,65.21922 -17.23273,0"
         style="font-size:132.55940247px;font-style:normal;font-weight:normal;fill:#000000;fill-opacity:1;stroke:none;font-family:Bitstream Vera Sans" />
      <path
         inkscape:connector-curvature="0"
         id="path3342"
         d="m 236.29768,793.35612 0,-16.03969 17.23273,0 0,16.03969 -17.23273,0"
         style="font-size:132.55940247px;font-style:normal;font-weight:normal;fill:#d45858;fill-opacity:1;stroke:none;font-family:Bitstream Vera Sans" />
      <path
         inkscape:connector-curvature="0"
         id="path3344"
         d="m 302.51112,866.39635 0,-39.5027 c -6e-5,-5.03721 -0.83959,-8.43957 -2.51863,-10.20707 -1.67913,-1.76741 -4.55125,-2.65114 -8.61636,-2.65119 -8.9257,5e-5 -13.38853,4.99312 -13.3885,14.97921 l 0,37.38175 -17.23274,0 0,-65.21922 16.43738,0 0,9.54427 c 2.03256,-3.7116 4.72792,-6.49534 8.08611,-8.35124 3.35815,-1.94414 7.68841,-2.91624 12.99083,-2.91631 3.09301,7e-5 5.96513,0.48612 8.61637,1.45816 2.65113,0.88379 4.90464,2.25357 6.76052,4.10934 1.94415,1.85589 3.44649,4.15358 4.50702,6.89309 1.14878,2.65124 1.72321,5.74429 1.72328,9.27916 l 0,45.20275 -17.36528,0"
         style="font-size:132.55940247px;font-style:normal;font-weight:normal;fill:#000000;fill-opacity:1;stroke:none;font-family:Bitstream Vera Sans" />
      <path
         inkscape:connector-curvature="0"
         id="path3346"
         d="m 364.97714,820.92848 c -0.44191,-3.00463 -1.59075,-5.16977 -3.44655,-6.49541 -1.76749,-1.41392 -4.50706,-2.1209 -8.21867,-2.12095 -3.53495,5e-5 -6.23032,0.44191 -8.08613,1.32559 -1.76748,0.79541 -2.65121,2.20937 -2.6512,4.2419 -10e-6,1.76751 0.88372,3.18147 2.6512,4.2419 1.85581,1.06052 4.50698,2.07681 7.95357,3.04887 5.65583,1.59075 10.42796,2.96053 14.31641,4.10934 3.88835,1.06051 6.98141,2.34192 9.27915,3.84422 2.38602,1.50237 4.0651,3.40239 5.03727,5.70006 1.0604,2.20935 1.59065,5.21402 1.5907,9.01404 -5e-5,5.83262 -2.4303,10.69313 -7.29076,14.58153 -4.86056,3.80004 -12.06295,5.70005 -21.60718,5.70006 -4.68379,-10e-6 -8.92569,-0.53024 -12.72571,-1.59072 -3.80004,-1.06047 -7.06984,-2.56281 -9.8094,-4.50702 -2.65119,-2.03257 -4.72794,-4.41864 -6.23028,-7.15821 -1.41398,-2.82791 -2.16515,-5.96515 -2.25351,-9.41171 l 17.76296,0 c -3e-5,3.09307 1.193,5.47913 3.57909,7.1582 2.47442,1.6791 5.65584,2.51864 9.54429,2.51863 3.26976,1e-5 6.0535,-0.48604 8.35123,-1.45815 2.38604,-1.06046 3.57907,-2.65117 3.57912,-4.77214 -5e-5,-2.38605 -0.88378,-4.10932 -2.6512,-5.16981 -1.67913,-1.06046 -4.28612,-1.98837 -7.82101,-2.78375 -6.36286,-1.41394 -11.48849,-2.87209 -15.37689,-4.37446 -3.88842,-1.59068 -6.93728,-3.31395 -9.14658,-5.16982 -2.12096,-1.85579 -3.57911,-3.88837 -4.37447,-6.09773 -0.70698,-2.20928 -1.06047,-4.68372 -1.06047,-7.42333 0,-2.47439 0.48605,-4.81627 1.45814,-7.02565 1.06047,-2.20926 2.69537,-4.15347 4.90471,-5.83261 2.2093,-1.67902 5.08142,-3.00462 8.61636,-3.97678 3.53489,-1.06041 7.86517,-1.59065 12.99081,-1.59072 9.36749,7e-5 16.2164,1.90009 20.54671,5.70006 4.33023,3.80009 6.7163,9.05828 7.15822,15.77457 l -16.56993,0"
         style="font-size:132.55940247px;font-style:normal;font-weight:normal;fill:#000000;fill-opacity:1;stroke:none;font-family:Bitstream Vera Sans" />
      <path
         inkscape:connector-curvature="0"
         id="path3348"
         d="m 416.63803,799.4522 c -5.21403,7e-5 -9.62675,0.56999 -13.25,1.71875 -3.6233,1.06054 -6.57731,2.62374 -8.875,4.65625 -2.20933,2.03263 -3.84578,4.45338 -4.90625,7.28125 -0.9721,2.82799 -1.50538,5.92311 -1.59375,9.28125 l 16.03125,0 c 0.44185,-2.91626 1.5084,-5.26371 3.1875,-7.03125 1.76743,-1.7674 4.64818,-2.65617 8.625,-2.65625 3.35815,6e-5 5.99327,0.63786 7.9375,1.875 2.03254,1.1489 3.06248,2.78534 3.0625,4.90625 -4e-5,2.29775 -0.74768,3.97084 -2.25,5.03125 -1.50238,0.97214 -4.41976,1.75641 -8.75,2.375 -4.33029,0.61865 -8.35087,1.3297 -12.0625,2.125 -3.6233,0.70702 -6.75506,1.8468 -9.40625,3.4375 -2.6512,1.59074 -4.74766,3.79711 -6.25,6.625 -1.50235,2.73958 -2.24999,6.4725 -2.25,11.15625 0,5.30238 1.74095,9.61055 5.1875,12.96875 3.53492,3.2698 9.05079,4.90625 16.5625,4.90625 4.41863,-10e-6 8.29805,-0.64314 11.65625,-1.96875 3.35814,-1.41396 6.06114,-3.26477 8.09375,-5.5625 0.1767,2.20933 0.53222,4.13342 1.0625,5.8125 l 16.03125,0 0,-41.21875 c -5e-5,-4.06511 -0.49672,-7.69355 -1.46875,-10.875 -0.97216,-3.26975 -2.54071,-5.97277 -4.75,-8.09375 -2.121,-2.20926 -5.00175,-3.88232 -8.625,-5.03125 -3.53495,-1.14878 -7.87441,-1.71868 -13,-1.71875 z m 10.625,35 -0.15625,7.15625 c -4e-5,1.94423 -0.42881,3.79508 -1.3125,5.5625 -0.79539,1.6791 -1.89856,3.17444 -3.3125,4.5 -1.32562,1.23723 -2.96208,2.26715 -4.90625,3.0625 -1.85586,0.70699 -3.88443,1.06249 -6.09375,1.0625 -5.56751,1e-5 -8.34376,-2.42074 -8.34375,-7.28125 -1e-5,-2.82791 0.92541,-4.99763 2.78125,-6.5 1.85581,-1.50231 5.2386,-2.74661 10.1875,-3.71875 3.1814,-0.61858 5.63338,-1.18849 7.3125,-1.71875 1.67904,-0.53021 2.95997,-1.24121 3.84375,-2.125 z"
         style="font-size:132.55940247px;font-style:normal;font-weight:normal;fill:#000000;fill-opacity:1;stroke:none;font-family:Bitstream Vera Sans" />
      <path
         inkscape:connector-curvature="0"
         id="path3350"
         d="m 492.10087,866.39635 0,-39.5027 c -4e-5,-5.03721 -0.83959,-8.43957 -2.51863,-10.20707 -1.67913,-1.76741 -4.55125,-2.65114 -8.61636,-2.65119 -8.9257,5e-5 -13.38853,4.99312 -13.38851,14.97921 l 0,37.38175 -17.23271,0 0,-65.21922 16.43737,0 0,9.54427 c 2.03255,-3.7116 4.72793,-6.49534 8.08611,-8.35124 3.35814,-1.94414 7.68841,-2.91624 12.99082,-2.91631 3.09301,7e-5 5.96513,0.48612 8.61637,1.45816 2.65113,0.88379 4.90464,2.25357 6.76052,4.10934 1.94415,1.85589 3.44649,4.15358 4.50702,6.89309 1.1488,2.65124 1.72321,5.74429 1.72328,9.27916 l 0,45.20275 -17.36528,0"
         style="font-size:132.55940247px;font-style:normal;font-weight:normal;fill:#000000;fill-opacity:1;stroke:none;font-family:Bitstream Vera Sans" />
      <path
         inkscape:connector-curvature="0"
         id="path3352"
         d="m 546.45543,799.4522 c -5.0373,7e-5 -9.48662,0.78438 -13.375,2.375 -3.88844,1.50241 -7.22919,3.74001 -9.96875,6.65625 -2.6512,2.91637 -4.6798,6.40361 -6.09375,10.46875 -1.41398,4.0652 -2.12499,8.61906 -2.125,13.65625 0,23.68395 10.88525,35.5 32.625,35.5 6.98141,-10e-6 12.99395,-1.8142 18.03125,-5.4375 5.0372,-3.62328 8.56107,-8.78362 10.59375,-15.5 l -17.75,0 c -0.61867,2.29771 -2.04074,4.11194 -4.25,5.4375 -2.12099,1.23724 -4.57835,1.84378 -7.40625,1.84375 -4.24194,1e-5 -7.69256,-1.45867 -10.34375,-4.375 -2.56284,-2.91629 -3.9849,-6.83233 -4.25,-11.78125 l 44.9375,0 c -7e-5,-12.99078 -2.59856,-22.70495 -7.8125,-29.15625 -5.12569,-6.45116 -12.73802,-9.68743 -22.8125,-9.6875 z m -0.53125,13.65625 c 1.67904,6e-5 3.31547,0.31894 4.90625,0.9375 1.59066,0.53029 3.01272,1.41908 4.25,2.65625 1.23717,1.14889 2.19919,2.64422 2.90625,4.5 0.7953,1.7675 1.22408,3.83273 1.3125,6.21875 l -26.625,0 c 0.35346,-4.50698 1.77553,-7.99428 4.25,-10.46875 2.56278,-2.56277 5.55342,-3.84369 9,-3.84375 z"
         style="font-size:132.55940247px;font-style:normal;font-weight:normal;fill:#000000;fill-opacity:1;stroke:none;font-family:Bitstream Vera Sans" />
      <path
         inkscape:connector-curvature="0"
         id="path3354"
         d="m 583.90507,866.39635 0,-17.36528 17.89552,0 0,17.36528 -17.89552,0"
         style="font-size:132.55940247px;font-style:normal;font-weight:normal;fill:#d45858;fill-opacity:1;stroke:none;font-family:Bitstream Vera Sans" />
      <path
         inkscape:connector-curvature="0"
         id="path3356"
         d="m 588.41209,842.00542 c -1.76747,-10.60471 -3.09305,-20.4141 -3.97678,-29.42818 -0.79535,-9.01398 -1.19304,-17.27684 -1.19303,-24.78861 -1e-5,-1.76738 -1e-5,-3.44647 0,-5.03726 0.0884,-1.59063 0.30929,-3.04878 0.66279,-4.37446 l 18.2932,0 c 0.17672,1.50243 0.30928,3.09314 0.39768,4.77214 0.0884,1.59079 0.13254,3.26988 0.13256,5.03726 -2e-5,7.33502 -0.44189,15.50951 -1.3256,24.52348 -0.79537,8.92572 -2.07678,18.69092 -3.84422,29.29563 l -9.1466,0"
         style="font-size:132.55940247px;font-style:normal;font-weight:normal;fill:#000000;fill-opacity:1;stroke:none;font-family:Bitstream Vera Sans" />
      <path
         inkscape:connector-curvature="0"
         style="fill:#d45858;fill-opacity:1;fill-rule:evenodd;stroke:#000000;stroke-width:1.92618513;stroke-linecap:butt;stroke-linejoin:miter;stroke-miterlimit:4;stroke-opacity:1;stroke-dasharray:none"
         d="m 197.43636,829.79258 c 0.54296,1.03054 2.26628,3.78297 3.17641,4.78808 0.95274,1.05217 3.23721,-7.89934 6.08918,-8.01794 2.82819,-0.11763 8.05621,4.28283 7.8514,8.20485 -0.18325,3.50894 -7.38448,5.6347 -7.09618,6.81 0.34472,1.40538 2.1984,3.78585 3.47899,4.26152 2.00669,0.74539 3.3684,0.46295 4.80863,-0.49367 1.18709,-0.78848 4.78494,-6.93293 4.89137,-10.37884 0.11815,-3.82601 -2.52153,-7.89554 -4.90502,-10.34228 -2.23788,-2.29726 -6.69454,-4.57879 -10.21145,-3.61237 -4.58923,1.2611 -8.72062,7.57108 -8.08333,8.78065 z"
         id="path3358"
         sodipodi:nodetypes="cssssssssss" />
      <path
         inkscape:connector-curvature="0"
         id="path3360"
         d="m 165.5325,768.31249 c -0.93205,-0.0291 -1.96826,0.38284 -3.13265,0.76937 -2.01027,0.66737 -4.61602,1.65423 -4.87604,3.10708 -0.27056,1.51278 13.89345,43.69861 13.75642,49.50615 -0.19473,8.25262 -20.07768,48.20785 -20.21239,51.57754 0.1972,4.14813 25.21492,4.02175 40.99683,-1.09488 19.08045,-6.18604 39.26867,-20.29604 35.63048,-24.73828 -2.29704,-2.50212 -41.78639,-22.416 -45.11015,-28.46677 -3.19711,-5.82014 -14.42701,-49.06816 -15.4998,-50.0388 -0.48944,-0.44283 -0.99349,-0.60398 -1.5527,-0.62141 z"
         style="fill:#d45858;fill-opacity:1;fill-rule:evenodd;stroke:none" />
      <path
         inkscape:connector-curvature="0"
         id="path3362"
         d="m 161.41919,769.43695 c -1.79324,0.65431 -3.67579,1.52496 -3.89538,2.75199 -0.27056,1.51278 13.89345,43.69861 13.75642,49.50615 -0.19473,8.25262 -20.07768,48.20785 -20.21239,51.57754 0.15568,3.27495 15.79189,3.88878 30.1279,1.47956 -1.27875,-19.68173 -3.7047,-52.61323 -3.7047,-52.61323 l -16.07185,-52.70201 z"
         style="opacity:0.07399998;fill:#000000;fill-opacity:1;fill-rule:evenodd;stroke:none" />
      <path
         inkscape:connector-curvature="0"
         style="fill:none;stroke:#000000;stroke-width:2.1960001;stroke-linecap:butt;stroke-linejoin:miter;stroke-miterlimit:4;stroke-opacity:1;stroke-dasharray:none"
         d="m 151.07641,873.28502 c 0.19722,4.14811 25.20655,4.00929 40.98845,-1.10734 19.08044,-6.18602 39.26143,-20.3066 35.62326,-24.74883 -2.29703,-2.50213 -41.79116,-22.39957 -45.11493,-28.45035 -3.19709,-5.82017 -14.402,-49.06899 -15.47479,-50.03963 -1.30516,-1.1809 -2.84001,-0.48151 -4.70305,0.13695 -2.01027,0.66734 -4.61199,1.67134 -4.87201,3.12419 -0.27056,1.51281 13.88436,43.69075 13.74734,49.49828 -0.19473,8.25261 -20.05954,48.21704 -20.19427,51.58673 z"
         id="path3364"
         sodipodi:nodetypes="cscsssssc" />
      <path
         inkscape:connector-curvature="0"
         sodipodi:nodetypes="czczc"
         id="path3366"
         d="m 161.88924,769.3661 c -1.9684,0.65346 -4.06815,2.03158 -3.83258,2.65568 0.24034,0.63677 3.29709,0.13098 4.83817,-0.22583 2.3653,-0.73434 3.92062,-2.34723 3.70724,-2.8735 -0.21538,-0.53115 -3.24303,-0.0523 -4.71283,0.44365 z"
         style="fill:#1e3146;fill-opacity:1;fill-rule:evenodd;stroke:none" />
      <path
         inkscape:connector-curvature="0"
         style="fill:none;stroke:#000000;stroke-width:1.69599998;stroke-linecap:butt;stroke-linejoin:miter;stroke-miterlimit:4;stroke-opacity:1;stroke-dasharray:none"
         d="m 157.93478,771.86943 c -0.003,0.0146 3.22092,0.31377 4.96005,-0.37817 2.3653,-0.73434 3.93083,-2.71668 3.9013,-2.73224"
         id="path3368"
         sodipodi:nodetypes="ccc" />
    </g>
    <path
       d="m 2925.7143,996.90618 -2865.992335,0 0,-967.099205 2865.992335,0 0,967.099205 z"
       style="fill:#edf7fb;fill-opacity:1;fill-rule:nonzero;stroke:none"
       id="path3076"
       inkscape:connector-curvature="0" />
    <path
       d="m 964.81415,-60.38322 -903.092185,0 0,-1144.81698 903.092185,0 0,1144.81698 z"
       style="fill:#fff9c6;fill-opacity:1;fill-rule:nonzero;stroke:none"
       id="path3498"
       inkscape:connector-curvature="0" />
    <path
       d="m 2925.7143,-46.999847 -1871.1588,0 0,-1153.374653 1871.1588,0 0,1153.374653 z"
       style="fill:#e3e0ee;fill-opacity:1;fill-rule:nonzero;stroke:none"
       id="path3626"
       inkscape:connector-curvature="0" />
    <path
       d="m 1723.0961,-1478.1124 -1663.374135,0 0,-856.113 1663.374135,0 0,856.113 z"
       style="fill:#cce2f1;fill-opacity:1;fill-rule:nonzero;stroke:none"
       id="path4220"
       inkscape:connector-curvature="0" />
    <path
       d="m -469.89265,996.90618 -1698.45375,0 0,-854.5575 1698.45375,0 0,854.5575 z"
       style="fill:#ffefd9;fill-opacity:1;fill-rule:nonzero;stroke:none"
       id="path4748"
       inkscape:connector-curvature="0" />
    <path
       d="m 2925.7143,-1281.1683 -1105.5637,0 0,-1052.2621 1105.5637,0 0,1052.2621 z"
       style="fill:#e2eed6;fill-opacity:1;fill-rule:nonzero;stroke:none"
       id="path4966"
       inkscape:connector-curvature="0" />
    <flowRoot
       xml:space="preserve"
       id="flowRoot3198"
       style="font-size:72px;font-style:normal;font-weight:normal;line-height:125%;letter-spacing:0px;word-spacing:0px;fill:#000000;fill-opacity:1;stroke:none;font-family:Sans"
       transform="translate(0,-2792.6299)"><flowRegion
         id="flowRegion3200"><rect
           id="rect3202"
           width="1588.1647"
           height="776.23779"
           x="93.683868"
           y="617.31604" /></flowRegion><flowPara
         id="flowPara3204"
         style="font-size:62px;text-align:justify;text-anchor:start">Insane is a combination of a pointer analysis with a memory effect analysis for the <flowSpan
   style="font-weight:bold;-inkscape-font-specification:Sans Bold"
   id="flowSpan3222">Scala</flowSpan> prog-ramming language. Our analysis is based on abs-tract interpretation, it is inter-procedural and flow sensitive. The analysis, aimed at <flowSpan
   style="font-weight:bold;-inkscape-font-specification:Sans Bold"
   id="flowSpan3224">higher order programs</flowSpan>, computes <flowSpan
   style="font-weight:bold;-inkscape-font-specification:Sans Bold"
   id="flowSpan3226">compositional sum-maries</flowSpan> using a very expressive representation of effects and does not require annotations. </flowPara></flowRoot>    <flowRoot
       xml:space="preserve"
       id="flowRoot3206"
       style="fill:black;stroke:none;stroke-opacity:1;stroke-width:1px;stroke-linejoin:miter;stroke-linecap:butt;fill-opacity:1;font-family:Sans;font-style:normal;font-weight:normal;font-size:72px;line-height:125%;letter-spacing:0px;word-spacing:0px"><flowRegion
         id="flowRegion3208"><rect
           id="rect3210"
           width="8.9222736"
           height="102.60614"
           x="1650.6206"
           y="1250.7975" /></flowRegion><flowPara
         id="flowPara3212"></flowPara></flowRoot>    <flowRoot
       xml:space="preserve"
       id="flowRoot3214"
       style="font-size:72px;font-style:normal;font-weight:normal;text-align:center;line-height:125%;letter-spacing:0px;word-spacing:0px;text-anchor:middle;fill:#000000;fill-opacity:1;stroke:none;font-family:Sans"
       transform="translate(0,-2914.6299)"><flowRegion
         id="flowRegion3216"><rect
           id="rect3218"
           width="1589.868"
           height="94.635002"
           x="85.171501"
           y="593.20349"
           style="text-align:center;text-anchor:middle" /></flowRegion><flowPara
         id="flowPara3220"
         style="font-size:64px;font-weight:bold;-inkscape-font-specification:Sans Bold">Overview</flowPara></flowRoot>  </g>
</svg>
